<mxfile host="Electron" agent="Mozilla/5.0 (Windows NT 10.0; Win64; x64) AppleWebKit/537.36 (KHTML, like Gecko) draw.io/28.0.6 Chrome/138.0.7204.100 Electron/37.2.3 Safari/537.36" version="28.0.6">
  <diagram id="Ym6H7bTPTSzl_t5bA-I1" name="Página-1">
    <mxGraphModel dx="786" dy="785" grid="1" gridSize="10" guides="1" tooltips="1" connect="1" arrows="1" fold="1" page="1" pageScale="1" pageWidth="827" pageHeight="1169" math="0" shadow="0">
      <root>
        <mxCell id="0" />
        <mxCell id="1" parent="0" />
        <mxCell id="SeLuox86SnjeD-x7noZh-18" value="ou" style="rounded=0;whiteSpace=wrap;html=1;" vertex="1" parent="1">
          <mxGeometry x="410" y="360" width="180" height="230" as="geometry" />
        </mxCell>
        <mxCell id="SeLuox86SnjeD-x7noZh-25" value="" style="rounded=0;whiteSpace=wrap;html=1;" vertex="1" parent="1">
          <mxGeometry x="50" y="350" width="290" height="470" as="geometry" />
        </mxCell>
        <mxCell id="SeLuox86SnjeD-x7noZh-11" style="edgeStyle=orthogonalEdgeStyle;rounded=0;orthogonalLoop=1;jettySize=auto;html=1;exitX=1;exitY=0.75;exitDx=0;exitDy=0;entryX=0;entryY=0.75;entryDx=0;entryDy=0;" edge="1" parent="1" source="SeLuox86SnjeD-x7noZh-2" target="SeLuox86SnjeD-x7noZh-3">
          <mxGeometry relative="1" as="geometry" />
        </mxCell>
        <mxCell id="SeLuox86SnjeD-x7noZh-2" value="" style="rounded=0;whiteSpace=wrap;html=1;" vertex="1" parent="1">
          <mxGeometry x="50" y="90" width="250" height="220" as="geometry" />
        </mxCell>
        <mxCell id="SeLuox86SnjeD-x7noZh-12" style="edgeStyle=orthogonalEdgeStyle;rounded=0;orthogonalLoop=1;jettySize=auto;html=1;exitX=0;exitY=0.25;exitDx=0;exitDy=0;entryX=1;entryY=0.25;entryDx=0;entryDy=0;" edge="1" parent="1" source="SeLuox86SnjeD-x7noZh-3" target="SeLuox86SnjeD-x7noZh-2">
          <mxGeometry relative="1" as="geometry" />
        </mxCell>
        <mxCell id="SeLuox86SnjeD-x7noZh-3" value="ou" style="rounded=0;whiteSpace=wrap;html=1;" vertex="1" parent="1">
          <mxGeometry x="410" y="90" width="180" height="220" as="geometry" />
        </mxCell>
        <mxCell id="SeLuox86SnjeD-x7noZh-5" value="" style="dashed=0;outlineConnect=0;html=1;align=center;labelPosition=center;verticalLabelPosition=bottom;verticalAlign=top;shape=mxgraph.weblogos.chrome" vertex="1" parent="1">
          <mxGeometry x="140.85" y="165.58" width="68.3" height="68.85" as="geometry" />
        </mxCell>
        <mxCell id="SeLuox86SnjeD-x7noZh-6" value="&lt;font style=&quot;font-size: 15px;&quot;&gt;Fonte de dados&lt;/font&gt;" style="text;html=1;align=center;verticalAlign=middle;resizable=0;points=[];autosize=1;strokeColor=none;fillColor=none;" vertex="1" parent="1">
          <mxGeometry x="110" y="50" width="130" height="30" as="geometry" />
        </mxCell>
        <mxCell id="SeLuox86SnjeD-x7noZh-7" value="&lt;font style=&quot;font-size: 15px;&quot;&gt;Books.toscrape&lt;/font&gt;" style="text;html=1;align=center;verticalAlign=middle;resizable=0;points=[];autosize=1;strokeColor=none;fillColor=none;" vertex="1" parent="1">
          <mxGeometry x="110" y="130" width="130" height="30" as="geometry" />
        </mxCell>
        <mxCell id="SeLuox86SnjeD-x7noZh-8" value="&lt;span style=&quot;font-size: 15px;&quot;&gt;Ingestão&lt;/span&gt;" style="text;html=1;align=center;verticalAlign=middle;resizable=0;points=[];autosize=1;strokeColor=none;fillColor=none;" vertex="1" parent="1">
          <mxGeometry x="460" y="50" width="80" height="30" as="geometry" />
        </mxCell>
        <mxCell id="SeLuox86SnjeD-x7noZh-14" value="Dados" style="text;html=1;align=center;verticalAlign=middle;resizable=0;points=[];autosize=1;strokeColor=none;fillColor=none;" vertex="1" parent="1">
          <mxGeometry x="320" y="230" width="60" height="30" as="geometry" />
        </mxCell>
        <mxCell id="SeLuox86SnjeD-x7noZh-15" value="Trigger Scrape" style="text;html=1;align=center;verticalAlign=middle;resizable=0;points=[];autosize=1;strokeColor=none;fillColor=none;" vertex="1" parent="1">
          <mxGeometry x="310" y="120" width="100" height="30" as="geometry" />
        </mxCell>
        <mxCell id="SeLuox86SnjeD-x7noZh-31" style="edgeStyle=orthogonalEdgeStyle;rounded=0;orthogonalLoop=1;jettySize=auto;html=1;exitX=1;exitY=0.5;exitDx=0;exitDy=0;" edge="1" parent="1" source="SeLuox86SnjeD-x7noZh-16" target="SeLuox86SnjeD-x7noZh-21">
          <mxGeometry relative="1" as="geometry">
            <Array as="points">
              <mxPoint x="640" y="150" />
              <mxPoint x="640" y="410" />
            </Array>
          </mxGeometry>
        </mxCell>
        <mxCell id="SeLuox86SnjeD-x7noZh-16" value="/api/v1/scraping/trigger" style="rounded=0;whiteSpace=wrap;html=1;" vertex="1" parent="1">
          <mxGeometry x="430" y="130" width="140" height="40" as="geometry" />
        </mxCell>
        <mxCell id="SeLuox86SnjeD-x7noZh-32" style="edgeStyle=orthogonalEdgeStyle;rounded=0;orthogonalLoop=1;jettySize=auto;html=1;exitX=1;exitY=0.5;exitDx=0;exitDy=0;" edge="1" parent="1" source="SeLuox86SnjeD-x7noZh-17" target="SeLuox86SnjeD-x7noZh-20">
          <mxGeometry relative="1" as="geometry">
            <Array as="points">
              <mxPoint x="620" y="254" />
              <mxPoint x="620" y="540" />
            </Array>
          </mxGeometry>
        </mxCell>
        <mxCell id="SeLuox86SnjeD-x7noZh-17" value="Script local" style="rounded=0;whiteSpace=wrap;html=1;" vertex="1" parent="1">
          <mxGeometry x="430" y="234.43" width="140" height="40" as="geometry" />
        </mxCell>
        <mxCell id="SeLuox86SnjeD-x7noZh-19" value="&lt;span style=&quot;font-size: 15px;&quot;&gt;Armazenamento&lt;/span&gt;" style="text;html=1;align=center;verticalAlign=middle;resizable=0;points=[];autosize=1;strokeColor=none;fillColor=none;" vertex="1" parent="1">
          <mxGeometry x="435" y="330" width="130" height="30" as="geometry" />
        </mxCell>
        <mxCell id="SeLuox86SnjeD-x7noZh-20" value="" style="sketch=0;pointerEvents=1;shadow=0;dashed=0;html=1;strokeColor=none;fillColor=#505050;labelPosition=center;verticalLabelPosition=bottom;verticalAlign=top;outlineConnect=0;align=center;shape=mxgraph.office.services.excel_services;" vertex="1" parent="1">
          <mxGeometry x="475" y="520" width="50" height="40" as="geometry" />
        </mxCell>
        <mxCell id="SeLuox86SnjeD-x7noZh-21" value="" style="sketch=0;shadow=0;dashed=0;html=1;strokeColor=none;labelPosition=center;verticalLabelPosition=bottom;verticalAlign=top;outlineConnect=0;align=center;shape=mxgraph.office.databases.database;fillColor=#2072B8;" vertex="1" parent="1">
          <mxGeometry x="481.25" y="390" width="37.5" height="60" as="geometry" />
        </mxCell>
        <mxCell id="SeLuox86SnjeD-x7noZh-24" value="" style="shape=image;verticalLabelPosition=bottom;labelBackgroundColor=default;verticalAlign=top;aspect=fixed;imageAspect=0;image=data:image/png,iVBORw0KGgoAAAANSUhEUgAAAecAAAM9CAYAAACmN7s0AAAAAXNSR0IArs4c6QAAAARnQU1BAACxjwv8YQUAAAAJcEhZcwAADsMAAA7DAcdvqGQAAO8RSURBVHhe7N19eBTlvfj/9xIelEUbLF/yO3SDYOohbY/1EnNOAQnRgghJkBDQQDRaSE95aK+klCfBo8SDxgbQlBwBOTYUiYagIRHJAwekuEQDHiMeoPoNpSGBLPhdpBI9LtENm/z+mJnd2clusnl0o5/Xdc0Fmfue2Zk7m/nM/bnv2TW1tLS0EIDm5mbjKiGEEEL0gH7GFUIIIYT4ZklwFkIIIYKMBGchhBAiyEhwFkIIIYKMBGchhBAiyEhwFkIIIYKMBGchhBAiyEhwFkIIIYKMBGchhBAiyEhwFkIIIYKMBGchhBAiyEhwFkIIIYKMBGchhBAiyJh65lup3uPfp2zgLeNqo+tDufmH45i7aA5xY0KNpd+IT175LUk7bMoPo+ex+6XZ/IOxkhBCCNGDvtmec2MD507tJ+vXi1nymhoQhRBCiO+4bzY4uzXxl//cyO7zxvVCCCHEd0+vBOcpTxVy5C3DUvYyO393Bze5a9ko+bP0noUQQoheCc4+DTQzKnYFv/lnz6pzFy7oa7g5z7/DH1evIGHGHCZNmcOk++aRsOBxNh+24zRW1nM5qTu8i3/79S+JvU/ddsYvSVn6R45caHNLHxz85T9XKPuYModJUx7l3991eIo/q6X0hcdJeXCep07soyT9egO737frdySEEEK06ZsLzj78462jDGscHN+0hCkL/sDO92v5rFFd7Wris/On2f3Mr4n99S7+8qVhM4Av/0L2gmQeeWYPR0438KVLXa+Oc//bo4+yJPc0vjb1pe6VDJa8Vqv+ZGbKU1t48i6z8mPtmyx5eAVZb5zm3GdNno2cDj45/R6bV/+aX74iWQEhhBCB+eaCc6Od469k8sL76s8hdzA3NsyryievZfDbfZe81hk5T+9hyfI3+cRrrY3dyzMo9t0RVzXxl12P89sAJqJ9+e4f+O0OLTDDP/7iGU9gxsmR3J38xYkStB/bzFv/VciRt/J54/GJ7rT9X3dk8se/uXchhBBC+NUrwfmttVoqWLfM+DW/3fEXPgMYOJpHNv6WKUN0GzW+w+ZcT0DkBxN5enu+Ml697w88PWW4p+xvO9n8lidN7XzrZTbrAuHNU37Lzn3KWPdb239L3A88ZX/NfZkjWo/ch7+/+wce/vd3lOME/vHBZ/jDwxZdjQ95+5j2/6GMGjWUgSEAA7npniX8bpxWdomi0r9oPwghhBB+9UpwbpuZf4qdyZQfaj1RhfOIlSNaKjrkDp7c/FsmjRyo/Hy9hUmPbeBJ3Xj1kdI/qwHUyZFDH3oK/nkxWx+byKjrlR8HjpzIqs2LmRSilrs+pOi/Gjz19T59k3/793f4TD2OIZNW8IdfjUF/DwFmbnCvsPHHRcnE/usz/HHPcf56oYlxT3smwZWl/5PXlkIIIYQvQRCcHfzljT/wyOwV7NZ1lI9/qAuwY8cxyTsiAmYm3X2H58ePq/krAH/hg+Oe1ZPujjYEU2BINHeP9fx4vPqsvtTjS4c7MAN8eeWKjwlo/8S993jfWHxZ+yE7t2byy0cfZUrsEn77wiH+qnW9hRBCiHb0SnD2+SjVvpfZvX42/6R2hnHWsvmJXWqABXRBkSFD0KrpDRyiC4ru+k18rdt24BCfWzJEH7FduklcbTn1R57/L90MbdU//eYZVo318wlnzkscf2Mrv5z3S7L0s7uFEEIIP3olOPt0vZl/GDuPp1PHeNb9v/f4UP0gkiH6wPvllz56rOD8UhfstDS1V5oZnF/63JIv9dO0QwbofjD43kQeifWMbx/5z138RX/jABBiIW79H3lr1zOsmncH//Q9H/tzNVC64WWOG7cVQgghDL654KxxB1VvI27WTbo6fowjrZ55cnDkbV3q+8eR/CMAFv5xtGf1kbcrWj8u9WUFb+tS32Mjb9GXegy5g1Wbf8sv05cw63vqus/384ddvmd4D/w/Y4hLfZwte3bx1hub+ePTjzBrpC5Qf/lXzrQ5g1wIIYT4RoOzk88+fpPn807r1v0fvv9/lP/dNOnnjNNN2vr3X/+BI+fVXnCjjSO/X8G/a49hAZPifq4+thTK+Ht1E6/e38ri379DnToj23n+HbJ+vdVrslnifX5S0v8nkrH/HxDyT/zrrzzj23/Ne5m3tIh/4o/EajPQ73vGPfN74JAw/nHc/SzNmKPeNACYvdPpQgghhA/f7LdSGQy5ZwVvPP4z9/hy3SsreET3fLFft/2SN7KneT4K1GVj969/6/U4lT9jf/NH/pDgCc7+v5WqgdKlvyTrlFJ004wM3kj/J+WZ6kWe17pp3GL+8Fg0o4YMVJ7lztvIb7UPLzEepxBCCOHDN9hzNrhpIk+mewIzwKiHM/jDDN3zzD4MHDOPnVmGgBdiIWljBrN0zzO3NoB/+sUG1usCc9tCiUub7e4Ff7bvj+oXdVhI2riCOPUAPju2lUcSkj3PcmuB+XsTWb9OArMQQoj2fbPBOWQAN/2f0Uz5xQp2v/JbxrVK+ZoZm76Ft7b/lkf+eTQ3qc8qEzKAm8bcwSOPb6Zs82xG+ZqQPeSfWLo9n52Pz2bSmFCGaCny60P5p3+ezdMvv8yWh0f7nAXu1+h5/HaGNlHNxuath5Tx7CE/Y9WuP7Jl8c8ZO9Ks2+cAhmjnt8vX+QkhhBCt9VBaWwghhBCd9c32nIUQQgjRigRnIYQQIshIcBZCCCGCjARnIYQQIshIcBZCCCGCjARnIYQQIshIcBZCCCGCjARnIYQQIshIcBZCCCGCjARnIYQQIshIcBZCCCGCjARnIYQQIshIcBZCCCGCjARnIYQQIshIcBZCCCGCjARnIYQQIsiYWlpaWowrfXmn8r+Nq4QQQgjRAwIOzkIIIYToHZLWFkIIIYJMh3rOWtUObCKEEEKIDgooOLe0tLiX5uZm9/+FEEII0f3aDc5aIHa5XFy7dg2Xy4XL5aK5udldLoQQQoju025wbm5uxuVy4XQ6qWto4eC5wVT/3YTTZawphBBCiO7QZnDW0thOp5Ozn7n4j+NmZowxETUCBvU31hZCCCFEd2h3trbWcz54bjAzxpi4a6QEZiGEEKIntRmc9ePN1X9XesxCCCGE6FltBmf0qW2X9JiFEEKI3tBucBZCCCFE72pzQlhzczNNTU04HA6WHxnK89NMxioA7Pm4haqL8PU1Y4nwZVB/iBoBs3/suz2FEEJ8t3W557zn4xbePS+BuSO+vgbvnlfaTgghhDDqcnCuumhcIwIlbSeEEMKXLgdn6TF3nrSdEEIIX7ocnIUQQgjRvSQ4CyGEEEFGgrMQQggRZCQ4CyGEEEFGgrMQQaoqK5H4rGPG1dBOWY+oLyQ9No3iemNBO2VCiE7pe8F5rIntCd7LCxO9q9w3sXUd/TIfABPP+ChzL3Em7vPebfA5m09qbCJJOaeMJd2j8QO2PpRIfMIyStu98NaSNz+R+Ac2cyLgrxN14jh7itIdT7N8bhLxsYEEHCeVTyUSH7ua0svqqqPZAW7bVcfYEJtIfGw2VcaioKQc74ajxvVCiGDXp4Lz/Mkmto80roXBw0xsn6z7tK3mtj7cw0Wz+m9btWgJOMJ8Q5xU5hViZzjx8bcZC3td059fZbcdwuJiuT3EWOrH5XLW/mYtW187TrWjyVjq29lCct8DfhbL1GHGwu+OqFVFlKwaZ1z9zQifw6ayHGaFGwuEEJ3Vd4LzWBPRNwA089F7F5i7XVle+UQJtdzQwooI700cn3zurudZPmc7AE5Wutdd5QIA1zisrSu4yn7v3QWXy+UUvQf87CHm3mIs7CbX38niV4soeeM54tq88DZwoOQ4hIwlNWm0sdC/YTFMvcNCXNpz7F4VbSz16URJOXaGk5QSzQBj4XeIV1q7vpD02EQle+DuKdsoXrIeK2Bd5+k9V2V56sXrU9FHs4lfks2GJYb1gdCltVul2w1l6VnZyrEuKcTuLvdxPMZj1eoL8R3RZ4Lz/KHKvxfOfMrvbSMYfJOyHLJ+yuHP4cKZS2T+1XsbU8gN7nqeZShKx+46BrrXDULpd5vop627cYi6LjhV7y6kGjNx93sHKe+LbyLxsxewPPsYDVoiQE0Bbyj9gNz0FGbFJhKfsIjMXadxuPeipW99XzRbOfk6u6rBfO9MJlyvrKrZsYj42ERSd9R6Va3JXUB8bCLL32gAQpn6TA6Lp43GHEhv+3I5rx10QOR0Zvi4IQn7XhOV2WkkzfB1Tk7s1s2e9HlsEknpm6m86PTswGmnMnsZSQnqeSeksDy7AruuiheXjQOPpRAfm8jDG4+5X8txspDMhWrbakuPpdxtFD+bj+WJIkrKiijZloxtXTZVWJi1ZSUxQMwTRawYr/zuM84lk1um1M2IsZGbrzuuugpIKaKkC73gqEnRYD3qTvvb3zlCzahJTFD3V2OFlLIiSrbMIYxjbFjoOfbcFMhdqA4ZGI/15nwyd9l0ryTEt1ufCc7fHwRwjTP/M5wBugu56brh7Ci5wCrDeoDBw/u1HkvWp7/7qsYKivY7IHIO8+4wFho0NlB9cD1rX/O+sFk3P0PxGQdNAM5LVOatZtOf/UWhtjipLC6ngTE8kuxJr0fETycSsJe+RbW20nWKA/sbwDyZlBmh7rqBqinZywmXmbiUmfja2l6aTeZBGw5X63Oy71lNatYhqr/Q0udNOM4cInPhWg5cRglyv1tM5sFaHFozOB1UH8wm9fFyGrQXcXNQtXE1OScdhMasZNvycZgBrpST+Vg+lfVq2/YSa57aswyfw6aypUQZKwCMX6oGRQAb9eeMFaK5Z7xxXQeNH08MFRxWe++VFTZiUrTXBGLGe47t6FGsutcMm5es2xaoy2en+v+oVUVsmmfRthTiW6+PBGdtdDiE4ZGetSvilID78kM/4JUHWk8M8ynox5Lb1/BfZVS6YEL89FZBKmqV2oMqK6KkrIBXFikBs+a8oddx41jSthVQUlbA1geVi17l+8fVwnGsKFN6UKmjvLZqzZ1eN4wBD5vO3BgzOI5w+ENlVZN1L6WODo5La1ynOFB6CcKmM9XfDYnZ3zmdoqigFjATs2o7xWVFlOzJYfFPANdpSq12OFlOwVngxmjW7CygpKyI4m2PKsf50Vsc9voc9AYOZy0iw2oIzACNTr4ECBlOTMpSNv1J2VfPjQ9bmLUlh1SUyYFtpoC9UsjredtY3i3G8UiKBeuRY4CNv9X5D/j2uloYFY7PTvr4pZQ8EY11nSf7IBPbxHdJHwnOzXzaCGAi9AZtXQutvuzSMBHM55jzvs70DoOI6xS7Xj0NYfeTFDPQWIrj5F42pC9QUruxc3n4RT8zue+YwtTwgcBAwsd0YJzY4ER+IdUMJynZOAY8kKgHphOGg9I3K2jCyfsVx4ExJMZ3/PUa9uVT6oAJyTMxTC3w8HdOF89S7QDCpjM3JlQ5zustRI1Ve2LOJuxnqnEAlmkJTBimtOuA8DuJCgdoAq97uivYzjkAM7ffdZt3Sn7ETJ5aM5lI8xWsedmkz5/rI8Xe3SzM2qLdkK0kps53CrgqP5+amJVqvRxSbjbW6B5hEycRYT1K1dGjWPU9ZYOwUaOhrh6/Iybjl7pvNHNTLFjX9ZVZ8kJ0XR8JziFsv6x8S8SIUSZ14lczzxYYJoUZ+BxzNl9nrNanaL3PyJkJRBh7n/WFrHnsZaxNU9i4p4iSPVvZ9OAYQyWDRhsHDig9ZvMQd/8vMI0VlGpjwLcaC4FbYkmMBN6zUlmn9LDN05KJ6/As61r27T0N5snE/TyAYzSe0wiL0lb2cgqsDUq6ubGWt99VAtgQ8xDCLEqgtu1/g8rLyg1c05kjvF0PYMY8xL13YDRJK5OJCHFgzXqS4jp9GYRO/DUbC3Yr7Z8WjcV1icq8p9l50rte9zA+LmXhh6PAMspPCviczT0RK89qLOwm4eO4e1QFGetqSU1uI2PglQIH+658d5rbvivNKwMQNmq0/162EN9CfSQ4Q8jxLzj8ufL/H91mYntCf/Ie+QEFC37Aw//QD2im9oJ3kPY55pygBfe+qJaCPGVWdOJ9xoQ28NWXSkq1rpDFCYnEz15M+munjbUU1vXqhLE0ct5zQMho5t6vjhlrzw3HppFbB2Ajd6GSWkzX9chqdr/qN72uCCUuZTJmjrPzqXKqWz32pZt4tq5CWaUdl+7CHPBjWn7P6U6mTjMDDqxZC5SJWrOXkaemsWfdGwpRU4i7EfiigsxH5hIfm8is9EJqXBD68znco05I1AwcNYfMNdGEumrJfSybKq1b7G47tf1zKrC5AMwM8QrwAdLOyb0YJ+eNY8W2ZGzu9G8auTevVCaAMY57YpTZ2um7bEQlJxNRp6a/n4WUFIsnWAfE8z5wLz4nulmYEG0B3UQw37yPPTUPUrcp4+Vh83LIuFmXql9XS+pq3di1EN9yppaWVslht+bmZpqamnA4HCw/MpTnp7WeTPW7/X4373Yux0W+/pcwCm7t77Xe8cnnpJZ/xYDvKZPC7psAScNbH6uihY9Pwsaz+nXNPJ0QwghcWN/ox8v6oh7mq039+nAzSY8fYsiDz5H7C1+pYQcnXnySzP3KpCbziDFMjbHw/q5D2GJWKuOeR7OVQBiCkqoNGYAlcgqPLH2UCSPUNLlWx4eIlBxlYo7rFFvnrqV0yBw2/SnZf6qZWvLmL2O3HYh8lFee10/mOsaGWOVxn1ZGJZO7ZQ5hNFD6uwVsPTOWNa/9m3s2uJeze3k8ay9/u9igTAbzdU6uBqrysvjjvtPYGoGBZiw/nclvl84hUgu8Vz4gL/MlSqov4XDBgBst/PPMfyX9QS11rR1vNBnqpKv6XctYnFcLtySzddMcwv/b2HYDMN96J4+k/oq4n/q+hRFCCKM+FZwBaLrC1f9t9FrVb3AY113n6VK1fHWJxqv+viy5vzuIe3yF87PPuMb1DHI/atU7fLWpbw0cWLGAnI/GsHjns51IDau0wKsF605qeHM1D794mshfbWdjQg8GnZMv8fBj5TRNe4rdad/8h60IIURv6DNpbbcBQ1uNI+sDM+rjVcY6nsUYmNE989y7gblDzpax+6POjtl2t1r2FStjwJ15JCpwvh/TEkKIb7u+13P+lvHVpj2qm3rOQgghek7f6zmLrtEeT5HALIQQQUuCsxBCCBFkJDgLIYQQQabLwXmQ91NNogOk7YQQQvjS5eAcNcK4RgRK2k4IIYQvXQ7Os39s4q6R0gvsiEH94a6RStsJIYQQRgE9SnX16lWWWUN7/7EfIYQQ4juoyz1nIYQQQnSvdoOzyWSiX79+DAyBr/19IqYQQgghuk2bwdlkMmEymQgJCSHy+y1UeX3hvBBCCCF6QpvBGaBfv36EhIRw781X2Xe6hXfPSw9aCCGE6EltTghDnRTmcrlwOp3UNbRw8Nxgqv9uwuky1hRCCCFEd2g3OLe0tNDS0oLL5eLatWu4XC5cLhfNzc3uciGEEEJ0n3aDM7oA3dLSQnNzs/v/QgghhOh+AQVnjVa1A5sIIYQQooM6FJyFEEII0fPana0thBBCiN4lwVkIIYQIMhKchRBCiCAjwVkIIYQIMhKchRBCiCAjwVkIIYQIMhKchRBCiCAjwVkIIYQIMh36EBL5hDAhhBCi5wUUnOWztYUQQoje025w1gKxfCuVEEII0TvaDc7yfc5CCCFE72ozOGtpbKfTydnPXPzHcTMzxpiIGgGD+htrCyGEEKI7tDtbW+s5Hzw3mBljTNw1UgKzEEII0ZPaDM768ebqvys9ZiGEEEL0rDaDM/rUtkt6zEIIIURvaDc4CyGEEKJ3tTkhrLm5maamJhwOB8uPDOX5aSZjFQD2fNxC1UX4+pqxRPgyqD9EjYDZP/bdnkIIIb7butxz3vNxC++el8DcEV9fg3fPK20nhBBCGHU5OFddNK4RgZK2E0II4UuXg7P0mDtP2k4IIYQvXQ7OQgghhOheEpyFEEKIICPBWQghhAgyEpyFEEKIICPBWQgRRI6xITaReOOSdcxYMUgox7vhqHE9gI3iJYmk77IZC4RoV98LzmNNbE/wXl6Y6F3lvomt6+iX+QCYeMZHmXuJM3Gf926Dz9l8UmMTSco5ZSzpHo0fsPWhROITllFabyw0qiVvfiLxD2zmRMBfJ+rEcfYUpTueZvncpAAvwk4qn0okPnY1pZfVVUezA9y2q7TAkU2VsahLOtN2wcW+K4342O4LRDFPFFFSpi0ribGu77Z9C9EX9KngPH+yie0jjWth8DAT2yfrPm2rua0P93DRrP7bVi1agv0q6aQyrxA7w4mPv81Y2Oua/vwqu+0QFhfL7SHGUj8ul7P2N2vZ+tpxqh1NxlLfzhaS+x7ws1imDjMW9k2darvvlHHcEwM15/tacLYwa0sRm+ZZjAVCtKvvBOexJqJvAGjmo/cuMHe7srzyiRJquaGFFRHemzg++dxdz7N8znYAnKx0r7vKBQCucVhbV3CV/d67Cy6Xyyl6D/jZQ8y9xVjYTa6/k8WvFlHyxnPEhRsL9Ro4UHIcQsaSmjTaWOjfsBim3mEhLu05dq+KNpb6dKKkHDvDSUqJZoCxsE/qZNt9pxzjsBViJo0DoCrLO0ti35VG/JJC7OBOJftLh1dl+SnTsi/q4u6l1xeSHpvNBnU73+lrf3Rp7aPZhoyLoWxJNhuWJBIfm0ZxPa3S+16v63WsWn3xbdNngvP8ocq/F858yu9tIxh8k7Icsn7K4c/hwplLZP7VextTyA3uep5lKErn5DoGutcNQul3m+inrbtxiLouOFXvLqQaM3H3ewcpr4tPbCLxsxewPPsYDVoiQP3D3lD6AbnpKcyKTSQ+YRGZu07jcO/FOO7XzgXg5OvsqgbzvTOZcL2yqmbHIuJjE0ndUetVtSZ3AfGxiSx/owEIZeozOSyeNhpzID3Gy+W8dtABkdOZ4eOGJOx7TVRmp5E0w9c5ObFbN3vS57FJJKVvpvKi07MDp53K7GUkJajnnZDC8uwK7LoqXlw2DjyWQnxsIg9vPOZ+LcfJQjIXqm2rLf5S7j7aTqEe70Pa8SqLd2rXQfWup1k0W3+8ut91IO8H7XeddQzqysl4SKmXtCKfak/jgaOWA9nLeFh7rdhEXUD0CDPbyF2iHnPCIjLf7Fxv17pOf9zrsaXksGK8sVZr9l3ryb15pZoOzyH13Hp3YLPvSiPjXDK5ujKlPY+xYV0tqdvUNPoT0dTkva4LpBXYRuZQUlYU0DH4NH48MVRwWAuy9cd4u87C3RPVXnVdBaQoxzUr3EbxEuWcteOxrtMFba9jHU3us61/D6Lv6zPB+fuDAK5x5n+GM0B3ITddN5wdJRdYZVgPMHh4v9Zjyfr0d1/VWEHRfgdEzmHeHcZCg8YGqg+uZ+1r3hdJ6+ZnKD7joAnAeYnKvNVs+rO/KNQWJ5XF5TQwhkeSPen1iPjpRAL20reo1la6TnFgfwOYJ5MyI9RdN1A1JXs54TITlzITX1vbS7PJPGjD4Wp9TvY9q0nNOkT1F1r6vAnHmUNkLlzLgcsoPZnfLSbzYC0OrRmcDqoPZpP6eDkN2ou4OajauJqckw5CY1aybfk4zABXysl8LJ/KerVt2+S77QA4+TJpWYeovuJ/LzW5y1iedxxbo7rC6aD64Hp+k/2B/9f2837gXDkZj71E1RXlR8dHhWx4Xb2xcp1ia+oycg7W0qC9lh+VL66nuE59declKl/aQWU72/jiPeacw90Vaf5vcIys+WogU9LKSkC1UVlhIyJ6HGF4ypSU8zhWlOUwS80O2eu8byhBF0Q7TUnNW48o52B/5wg1Mcnu14Ro7tECvzFwj3+A1FE23n5H+53ZyM1X22L8Ukq2zFHPSXyb9JHgrI0OhzA80rN2RZwScF9+6Ae88kDriWE+Bf1Ycvsa/quMShdMiJ/eKkhFrdJf1Ap4ZZFy0W81XnfjWNK2FVBSVsDWB5WLQOX7x9XCcazQehejvLZqzZ1eN4wBD5vO3BgzOI5w+ENlVZN1L6WOTo6tuk5xoPQShE1nqr8bErO/czpFUUEtYCZm1XaKy4oo2ZPD4p8ArtOUWu1wspyCs8CN0azZWUBJWRHF2x5VjvOjtzjs9TnoDRzOWkSG1RCYARqdfAkQMpyYlKVs+pOyr5JVSkrWi7+2A2j8UumJ3ziaWb96iq2vK/txj182VrD7jUsQMobF29TjfWEOEUDDn49wQt1NwO+HulNUDbufja8XUbxGOVb72RqagIbSfEq/AG65n2e08ykr8h0UbryNxS8UULLvWWYNA1yXsGsT9zrNwqyUaLAebXciXti8HHJTIHeh1uvWepw2/lYHllG+gqx3KjyzwljePaKSk4lQz6H+vM2dpm/FVk8Nown3OZQ0jhXqBDl3ZiHQmxbRp/SR4NzMp40AJkJv0Na10OrLLg0TwXyOOe/rTO8wiLhOsevV0xB2P0kxA42lOE7uZUP6AiW1GzuXh1/0M5P7jilMDR8IDCR8TOfHOk/kF1LNcJKSjWPAA4l6YDphOCh9s4ImnLxfcRwYQ2J8x1+vYV8+pQ6YkDwTw9QCD3/ndPGskqINm87cmFDlOK+3EDVWvVA7m7CfqcYBWKYlMGGY0q4Dwu8kKhygCbzu6a5gO+cAzNx+123eKfkRM3lqzWQizVew5mWTPn+ujxS7wn/bAT/7FRtTxmJpqqX4P9ey+IG5xM9OY+s7agLzsh27S7m52LpwLvGxicz6TSE1ht0E/H5gOEnpvyDSDAMmqmnhf5/CAOBvfz0NwIQHkrk9rPV7Ti9i5r8Sd8tACDFz0xBjae8Im6emg8uKyIixqWlfCz8cBbY6H2n2o6+TWxdNhrrNppSOvz8DEj6Ou0dVcPjoMQ5bdT1lI0s4EdRS73coSbt5LqJkWzIRVk/qXnx79JHgHML2y8q3RIwYZVInfjXzbIFhUpiBzzFn83XGan2K1vuMnJlAhLH3WV/Imsdexto0hY17iijZs5VND44xVDJotHHggNJjNg9x9/8C01hBqTYGfKuxELgllsRI4D0rlXVKL9E8LZk4Yy+xXbXs23sazJOJ+3kAx2g8pxEWpa3s5RRYG5SUb2Mtb7+rXKiHmIcQZlECtW3/G1ReVm7gms4c4e16ADNmr0AzmqSVyUSEOLBmPUlxnb4MQif+mo0Fu5X2T4vG4rpEZd7T7Dypq9Re22Emct6/8eKeIopff46MB28jtNFGaeYfOHAFGGJmCGq24IU8JRvgXpYSRUffD2P4kc/jgPDRSrCqfD2fE34H4HuSjeK8CogZTxQQPtKi60Ur6WqNcbJY+EgL3GwhDAsToi3UVBxzj89619WCofpaPUI5Buu69dhSHlB+R76Ej+NufRr76Ovkamnu+kLS9XNAwi1YsPBDXwkB0af1N64IViHHv+DwsJu453vwo9tMbL+tP/ADXY1mai80gzrdC/eYs66K6v+eamGDsYvRJ9RSkKfM7E28z5jQBr76Ukmp1hWyOKHQWOrNup54q+7nkNHMvV8d9zyaTfw6/QXKRu7CRHKBiJQcd2q1ZverftPrilDiUiaz8/FD7HzKpsyy9nrs6xgbYtejPwz3cY1KJldNm7ofNXqwnXR4G+c0dZqZA6UOrFkLsGbp6twYzax7Q2HgFOJurKD0iwoyH/G+OIf+fA73qBMSNQNHzSFzTT0L11WQ+1g24blLiTL7ajuNmSG6AN9e29l3pZGa56OXF2JmyHXA9ZOZ9fN8Tvz5ODm/SSFHXydmpZJG78j7oQ1h06YzYccWKs++yePz3/QU6H5H3c26LtH7fTEqmVx1aCBsXjIxeevJiK0ALKSmRIPa5FGrckhdkkZ8rLZhNBll2nY5ZJxPJDU237PPLeOUfYxKU9/jFlKfSCZi3RHq6/EfQA18Hu+W1mnrsImTiMg70s4YtoVZW1byt9g04vOUNTFPFKnj03PY9EQ98erfI+rf5AqfKXDRl/WRnjMwYCg7Si4w90zr71lU0tef8vuzbV25NT7S4X3Fh2WU2CFs9kOGmb2qWx8g7f7RmNXMo3nEGGbNm4zPy4DWVCEDsPxkOmu2PaubnBIA9xjwHJJ+3kaq845Y4sPAbr/kd5Z12wJ41CjsFm4PD/Wkl32cU+Si/yDjwTFYtHYbaMYSlczGrUuJuh4IuY3FWx8n6SfD3fsZcKOFCSlPsW3pna3TzoB5/FKeTRkNX1SQsaqQep/TGQZgvnUci3//e1K0cw+07fTc57RS/d0PJGrpRtbcrzsno468H9pinsKaP65k1k8s7n31HF3KVr943QTo6+Qwa55+UpQy0atVFkHlNQbvc5scZo2fwyZtgli47v8+tXW8Pp5z9rW/8UtbHadxv16zxMcv9XoteY7628nU0uI/VDU3N9PU1ITD4WD5kaE8P631TOff7fe7ec9ousLV//We/tlvcBjXXecJzC1fXaLxausgrujPgO8ZZ3Z/hfOzz7jG9QxyP2rVO3y1qW8NHFixgJyPxrB457OdSA2rtJ6d1rvqpIY3V/Pwi6eJ/NV2Nib46vt1k5Mv8fBj5TRNe4rdad/8h610h15rOyFEn9V3es6aAUNbjSPrAzPq41XGOp7FGJjRPfPcu4G5Q86Wsfujzo7Zdrda9hUrY8CdeSQqcG08atRn9VbbCSH6sr7Xc/6W8dWmPaqbes5CCCF6Tt/rOYuu0carJDALIUTQkuAshBBCBBkJzkIIIUSQ6XJwHtRnnpQOPtJ2QgghfOlycI4aYVwjAiVtJ4QQwpcuB+fZPzZx10jpBXbEoP5w10il7YQQQgijgB6lunr1Ksusob3/2I8QQgjxHdTlnrMQQgghule7wdlkMtGvXz8GhsDX/j4RUwghhBDdps3gbDKZMJlMhISEEPn9Fqq8vnBeCCGEED2hzeAM0K9fP0JCQrj35qvsO93Cu+elBy2EEEL0pDYnhKFOCnO5XDidTuoaWjh4bjDVfzfh9Pn1eEIIIYToqnaDc0tLCy0tLbhcLq5du4bL5cLlctHc3OwuF0IIIUT3aTc4owvQLS0tNDc3u/8vhBBCiO4XUHDWaFU7sIkQQgghOqhDwVkIIYQQPa/d2dpCCCGE6F0SnIUQQoggI8FZCCGECDISnIUQQoggI8FZCCGECDISnIUQQoggI8FZCCGECDISnIUQQogg06EPIZFPCBNCCCF6XkDBWT5bWwghhOg97QZnLRDLt1IJIYQQvaPd4Czf5yyEEEL0rjaDs5bGdjqdnP3MxX8cNzNjjImoETCov7G2EEIIIbpDu7O1tZ7zwXODmTHGxF0jJTALIYQQPanN4Kwfb67+u9JjFkIIIUTPajM4o09tu6THLIQQQvSGdoOzEEIIIXpXmxPCmpubaWpqwuFwsPzIUJ6fZjJWAWDPxy1UXYSvrxlLhC+D+kPUCJj9Y9/tKYQQ4rutyz3nPR+38O55Ccwd8fU1ePe80nZCCCGEUZeDc9VF4xoRKGk7IYQQvnQ5OEuPufOk7YQQQvjS5eAshBBCiO4lwVkIIYQIMhKchRBCiCAjwVkIIYQIMhKchRDfSVVZicRnHTOuhnbKul19IemxicT7XNIorjdu0BnH2BCbyIajxvUANoqXJJK+y2YsEN+gvhecx5rYnuC9vDDRu8p9E1vX0S/zATDxjI8y9xJn4j7v3Qafs/mkxiaSlHPKWNI9Gj9g60OJxCcso7TdC0QtefMTiX9gMycC/jpRJ46zpyjd8TTL5yYpF6N2L4hOKp9KJD52NaWX1VVHswPctquUC1x8bDZVxqIu8dd2DVTteJrlczd38+t9gy4fI+/JZSRld9/vqipLCWS+A09PaivgdUD4HDaVFVFSVkTJtmQisJC6Tf25LIdZ4cYNxHdBnwrO8yeb2D7SuBYGDzOxfbLu07aa2/pwDxfN6r9t1aIl4AjzDXFSmVeIneHEx99mLOx1TX9+ld12CIuL5fYQY6kfl8tZ+5u1bH3tONWOJmOpb2cLyX0P+FksU4cZC/sm/21XzeHXjlP9hVO/sm87c5TdVbU4gvyUolYVUbJqnHH1t5SFWVuK2DTPYiwQ36C+E5zHmoi+AaCZj967wNztyvLKJ0qo5YYWVkR4b+L45HN3Pc/yOdsBcLLSve4qFwC4xmFtXcFV9nvvLrhcLqfoPeBnDzH3FmNhN7n+Tha/WkTJG88R1+bdewMHSo5DyFhSk0YbC/0bFsPUOyzEpT3H7lXRxlKfTpSUY2c4SSnRDDAW9kmdbDvRo7zS2oa0s9JTtlG8ZD1WwLrO03vWevGtUtJHs4lfks2GJZ1JVWsZG2OGQEtHF3rKlxRi9944ALq09tFsQ2bIUNbqHPwdmy6jZWwLEZA+E5znD1X+vXDmU35vG8Hgm5TlkPVTDn8OF85cIvOv3tuYQm5w1/MsQ1E6J9cx0L1uEEq/20Q/bd2NQ9R1wal6dyHVmIm73ztIeV8cEomfvYDl2cdo0BIB6h/MhtIPyE1PYVZsIvEJi8jcdRqHey/ef3Dt/mGdfJ1d1WC+dyYTrldW1exYRHxsIqk7ar2q1uQuID42keVvNAChTH0mh8XTRmMOpLd9uZzXDjogcjozfNyQhH2vicrsNJJm+DonJ3brZk/6PDaJpPTNVF7UdeGcdiqzl5GUoJ53QgrLsyuw++vluWwceCyF+NhEHt54zP1ajpOFZC5U21Zb/KXcfbSdJxgoF3+oIMO9L92Fs93jVX+PmeVUvajVSyL1yUKqPQ3TPvV40nfZcHz4Eou0/WS95XlftRo3TSJp4dMUf6S8kH1XmrJ+XYVS37red9u4DOc02/h7BMdHe9mQvkD5PccmkvGOrrDb2Sh+Nh/LE560s21dNlVYmLVlJTFAzBNFrBiv/G1lnEsmV01RZ8TYyM3XnVtdBaR0NFWt3ATYUnKU138iGus677/Hmrwj/HCbst9U8kn1914LxPjxxFDBYS3I1h/j7ToLd09Ue9Ve59DWsR1jw7paT3r+idHkPtuZG4fvrj4TnL8/COAaZ/5nOAN0F3LTdcPZUXKBVYb1AIOH92s9lqxPf/dVjRUU7XdA5Bzm3WEsNGhsoPrgeta+5j3Zw7r5GYrPOGgCcF6iMm81m/7sLwq1xUllcTkNjOGRZE96PSJ+OpGAvfQtqrWVrlMc2N8A5smkzAh11w1UTcleTrjMxKXMxNfW9tJsMg/acLhan5N9z2pSsw5R/YWWPm/CceYQmQvXcuAyykXwd4vJPKhLuTodVB/MJvXxchq0F3FzULVxNTknHYTGrGTb8nGYAa6Uk/lYPpX1atu2yXfbBaYDx/vOS2S8qdVrwl6Vz/KNFQEcn7ea4y+R+WQ5Nm0/1i1ssfp7zzThqD9O7mP/SVXAI0QOrE8ZzqlR+T2u2aO+f0++xMIVL2M906D8ngEC3n/nWfPUwBI+h01lS4kyVgAYv5SSLXMIA8BG/TljhWjuGW9c1w5jcBz/AKmjbLz9ju7vOSZZDfYWZqVEg/VoF+YojOOeGLAeUQK8/Z0j1Lj3j/c5tHtsupsTr7YRgegjwVkbHQ5heKRn7Yo4JeC+/NAPeOWB1hPDfAr6seT2NfxXGZUumBA/vVWQilqlTSQpoqSsgFcWKRf9mvOGmZg3jiVtWwElZQVsfVD546p8/7haOI4V6mSU1FFeW7XmTq8bxoCHTWdujBkcRzj8obKqybqXUoevsdUAuE5xoPQShE1nqr8bErO/czpFUUEtYCZm1XaKy4oo2ZPD4p8ArtOUWu1wspyCs8CN0azZWUBJWRHF2x5VjvOjtzjs9TnoDRzOWkSG1RCYARqdfAkQMpyYlKVs+pOyL5/jl/7azj1BSOmZQTQZ7t+pGhg6dLxmJqTlULyviOIX5hAB8F4VJ9RSd69Wt/ic5PTRKc5FLeGVfUVsVccna2qVASGvSU1lRZTseYpZwwBXLfUXIWyep3cFQMxKT12tbc7uZWcVEDaZDPWcdq9S2rbm0DHsOLEWKjceEfc/xStvaD1U7QB7goVZW9QeqdY+/lLHXtmD9bxtLO8MWz01jCa8jZ52xEjdWLElXPn9dkFUcjIRaoCvP28jZpKP9y7tHds4VpStJMZfhkS0q48E52Y+bQQwEXqDtq6FVl92aZgI5nPMeZ+/O/0+wnWKXa+ehrD7SYoZaCzFcVKf8pvLwy/6mcl9xxSmhg8EBhI+pvNjnSfyC6lmOEnJxjHggUQ9MJ0wHJS+WUETTt6vOA6MITG+46/XsC+fUgdMSJ7p/+Lj75wunlXSuGHTmRsTqhzn9RaixqoXNWcT9jPVOADLtAQmDFPadUD4nUSFAzQZemdXsJ1zAGZuv+s275T8iJk8tWYykeYrWPOySZ8/10eKXeG/7drXseMdy9RpFgaEwIBbbqHT035CxvKvy6cQGgLhaiozN1VtZ6edyhdXs0gbNpi9lmJtNn2g7HYl6NkPkfHIXOJjE0nK8gwXwCU+uwxg4e642wht/fbvIcqEKeVmYiUxdflk+njsqCo/nxr3TUcOKTcba3SCJZwIaqlvY1jJ68bbVk+NvrAzwsdx96gKDh89xmFrG739do9Nu8lXZ6Fb1/u+6RM+9ZHgHML2y8q3RIwYZVInfjXzbIFhUpiBzzFn83XGan2K1vuMnJlAhLH3WV/Imsdexto0hY17iijZs5VND44xVDJotHHggNJjNg9x9/8C01hBqTYGfKuxELgllsRI4D0rlXVKL9E8LZm4Ds+yrmXf3tNgnkzczwM4RuM5jbAobWUvp8DaoKRzG2t5+13lojbEPIQwixKybPvfoPKycgPXdOYIb9cDmDEPce8dGE3SymQiQhxYs56kuE5fBqETf83Ggt1K+6dFY3FdojLvaXae1FVqr+28NPDZFe81HTtelctJ/f63lB6zeQhaFXevVres8HVBDo8k0k/zV2UvJvPNs0Qs3k5JWQG7X1hKTFu/5y+ueNLSGvMQJQMxajrPaBkHbdkyhzAGqFesK/ztrJK4d5wspETNzPQM4+NSFn44Ciyj/NzinLMpNxj1heQpEwa6Jnwcd+tTxUdfJ1efSgZdGttGcV4FxIz3nXYPmIUJ0Ras69ZjS3nA/77aOrb6QtL1c1XCLViw8EM/zSZa629cEaxCjn/B4WE3cc/34Ee3mdh+W3/gB7oazdReaAZ1uhfuMWddFdX/PdXChi7fXn4TainIU2b2Jt5nTGgDX32ppFTrClmcUGgs9WZdT7z+4hEymrn3q+OeR7M9E3dAGTtamEguEJGS437komb3q37T64pQ4lIms/PxQ+x8yqbMsvZ67OsYG9yTnlTacY1KJlcdo3I/avRgO+nwNs5p6jQzB0odWLMWYM3S1bkxmln3hsLAKcTdWEHpFxVkPqI/dwj9+RzuUSckagaOmkPmmnoWrqsg97FswnOXEmX21XYaM0N0AbP9tgMYwKAQJVuS81AiOaCmuJcSFdWR460gI9a7TsRcZU5A93DicAA0Yc1K8W5fI6078OFLJM14Sfl/zEoltf3T6cy9pZzcs+U8Pr9cv5X7fXfP1DHkvni69e+xs4zvGSykbsvBk6kdx4ptyaQvTCReWxWzkpLxStk9MZCxLhFbSg6bkpOJWJhPamw+jEomI8VCRoUSrDs/1qpMPPtbbBrxecqamCeKvCaURcRAXmwiGah/N76GUFTWdYnef2+jksnd0rp+2MRJROQd8b4JaKWtY5vDpifqiVevG6i/wxU+U+DCF1NLS6vksFtzczNNTU04HA6WHxnK89NaT6b63X6/m3c7l+MiX/9LGAW3et9TOD75nNTyrxjwPWVS2H0TIGl462NVtPDxSdh4Vr+umacTQhiBC+sb/XhZX9TDfLWpXx9uJunxQwx58Dlyf+ErNezgxItPkrlfmVBjHjGGqTEW3t91CJt2AdSCR4g6kSZkAJbIKTyy9FEmjFDzhH4DjC44u06xde5aSofMYdOfkv2nmqklb/4ydtuByEd55Xn9ZC4fwVnjDs4NlP5uAVvPjGXNa//mmdGsd3Yvj2ft5W8X1UlCvs7J1UBVXhZ/3HcaWyMw0IzlpzP57dI5RGqB7MoH5GW+REn1JRwuGHCjhX+e+a+kP6ilrrXjVQMkUL9rGYvzauGWZLZumkP4fxvbbgDmW+/kkdRfEfdT9cwDbjtwfPgSa7Pe0k1k87x24Mer3rO61PdEym95JCYs8FR6fSHpC/Op0d0wtVJXTubTO6i82AQDzUT+yxx+5HiZ4g+VYOcJJt7vUdAFZwDHaUo3/Sc7/9v7WWjP+66BqpeeZEOpDYdrAGFRD7BiQj3Lcyo8s6a/M2wUL0nj7WjPDbP49uhTwRmApitc/d9Gr1X9Bodx3XWeLlXLV5dovOrvy5L7u4O4x1c4P/uMa1zPIPejVr3DV5v61sCBFQvI+WgMi3c+24nUsEoLvPoLYic0vLmah188TeSvtrMxwX/fr8tOvsTDj5XTNO0pdqd1dEZzcOq1tvNxMyG+TSQ4f5v1kTFnnQFDW40j6wMz6uNVxjqexRiY0T3z3LuBuUPOlrH7o86O2Xa3WvYVK2PAnXkkKnBdedQoWPVW2wkh+rK+13P+lvHVpj2qm3rOoi+QnrMQfZUE52+YrzYVQgjx3db30tpCCCHEt5wEZyGEECLIdDk4D+ozT0oHH2k7IYQQvnQ5OEeNMK4RgZK2E0II4UuXg/PsH5u4a6T0AjtiUH+4a6TSdkIIIYRRQLO1r169yjJrqMwsFkIIIXpBl3vOQgghhOhe7QZnk8lEv379GBgCX/v7REwhhBBCdJs2g7PJZMJkMhESEkLk91uo8voCdyGEEEL0hDaDM0C/fv0ICQnh3puvsu90C++elx60EEII0ZPanBCGOinM5XLhdDqpa2jh4LnBVP/dhNP4RelCCCGE6BbtBueWlhZaWlpwuVxcu3YNl8uFy+WiubnZXS6EEEKI7tNucEYXoFtaWmhubnb/XwghhBDdL6DgrNGqdmATIYQQQnRQh4KzEEIIIXpeu7O1hRBCCNG7JDgLIYQQQUaCsxBCCBFkJDgLIYQQQUaCsxBCCBFkJDgLIYQQQUaCsxBCCBFkJDgLIYQQQaZDH0IinxAmhBBC9LyAgrN8trYQQgjRe9oNzloglm+lEkIIIXpHu8FZvs9ZCCGE6F1tBmctje10Ojn7mYv/OG5mxhgTUSNgUH9jbSGEEEJ0h3Zna2s954PnBjNjjIm7RkpgFkIIIXpSm8FZP95c/XelxyyEEEKIntVmcEaf2nZJj1kIIYToDe0GZyGEEEL0rjYnhDU3N9PU1ITD4WD5kaE8P81krALAno9bqLoIX18zlghfBvWHqBEw+8e+21MIIcR3W5d7zns+buHd8xKYO+Lra/DueaXthBBCCKMuB+eqi8Y1IlDSdkIIIXzpcnCWHnPnSdsJIYTwpcvBWQghhBDdS4KzEEIIEWQkOAshhBBBRoKzEEIIEWS6/Jzz7/b73VwEwFebCiH6imNsiF2P1bgaiHmiiBVkE78OMsqWEnVU939j5e5UX0j6wiPcvS2HWeEdKOtxftpqVDK5W+YQZlzfYT29/97V93rOY01sT/BeXpjoXeW+ia3r6Jf5AJh4xkeZe4kzcZ/3boPP2XxSYxNJyjllLOkejR+w9aFE4hOWUVpvLDSqJW9+IvEPbOZEwF8n6sRx9hSlO55m+dwk4mMTic86Zqxk4KTyqUTiY1dTellddTQ7wG276hgbYhOJj82myljUJZ1pu45wUpW9gPjYJJa/YTMWim4Q80QRJWXey4rxxlo69YWkx6ZR3O7f1bePd1vlkEo+qd34t9vT++8tfSo4z59sYvtI41oYPMzE9sm6HmhzW715F83qv23VoqVHrpLdyEllXiF2hhMff5uxsNc1/flVdtshLC6W20OMpX5cLmftb9ay9bXjVDuajKW+nS0k9z3gZ7FMHWYs7Js61Xaibxi/lJKe7il3RPgcNpV9E71mfyzMSokG69FuvuHV9PT+e07fCc5jTUTfANDMR+9dYO52ZXnlEyXUckMLKyK8N3F88rm7nmf5nO0AOFnpXneVCwBc47C2ruAq+713F1wul1P0HvCzh5h7i7Gwm1x/J4tfLaLkjeeIa/OPuYEDJcchZCypSaONhf4Ni2HqHRbi0p5j96poY6lPJ0rKsTOcpJRoBhgL+6ROtl2HDCRq6XZKynazMcFiLBQ96Wi2j0zLMTYszKcGG7kL0yiut1G8JJENWd4ZoKqsROXn2ETi9b3so9nEL8lmwxLD+kC4e+zKa6bv0mVS3Mfq+3iUbX0cj/FYlxRi9xR1nL/XqS8kPTabDeprbThq2C4AVVmJpGdlK/t3H6eWEfO1X/9l9l1p3XfOPvSZ4Dx/qPLvhTOf8nvbCAbfpCyHrJ9y+HO4cOYSmX/13sYUcoO7nmcZitI5uY6B7nWDUPrdJvpp624coq4LTtW7C6nGTNz93kHK+w86kfjZC1iefYwGLRGgpoA3lH5AbnoKs2ITiU9YROau0zjce/F+Qxr/EFs5+Tq7qsF870wmXK+sqtmxiPjYRFJ31HpVrcldQHxsIsvfaABCmfpMDounjcYcSI/xcjmvHXRA5HRm+LghCfteE5XZaSTN8HVOTuzWzZ70eWwSSembqbzo9OzAaacyexlJCep5J6SwPLsCu66KF5eNA4+lEB+byMMbj7lfy3GykMyFattqi7+0mo+2w/2Hn8Zu614yf6ke8+w0tr7juQRodYrrHZx4Mc39u9xw0FPH+H7wuhhrXHZO7HiaRe62SWwVUBwfFXqOQ2u7Dl6NOnO8Ab1/ZySR/uIpz+/a1UDVjtUsmm3Yl+H30B3npLGuC6Cd3caxYlsyEVhI1Y39Ws+Fk1tWRMmqcXA0m4xzycrPZUVkxNjIzde9h+oqIEVJ23auF2xhQrSFmopj7qBSdaQCYsa7e/lex6PeUFjUlHFuCuQuVN8jxmO9OZ/MNs9fz0Zxnv5123gdACqwjcxpf9jAzbh/qLFCSlkRJVvmEIaN4iXrsaUo+yzZloxtnXa9a6PsaDapeaPJ6MHUeZ8Jzt8fBHCNM/8znAG6C7npuuHsKLnAKsN6gMHD+7UeS9anv/uqxgqK9jsgcg7z7jAWGjQ2UH1wPWtf8/5jsW5+huIzDpoAnJeozFvNpj/7i0JtcVJZXE4DY3gk2ZNej4ifTiRgL32Lam2l6xQH9jeAeTIpM0LddQNVU7KXEy4zcSkz8bW1vTSbzIM2HK7W52Tfs5rUrENUf6Glz5twnDlE5sK1HLiM8of4u8VkHqzFoTWD00H1wWxSHy+nQXsRNwdVG1eTc9JBaMxKti0fhxngSjmZj+VTWa+2bZt8t52Hjbysl6m8qO6p0UZp5lryznrXqdr8NI+/aXP/Lq05L1HZqK/TlgYOPLaYx187js3dNgZndpC2It9zHFrbpWdTFfDraDp4vIG8f11N1Ly5mSK1XRoOZpPx2mkGzXiO4rIiil+YQwTAT5fwyqpxSqVuPSfjOGcRm+Z1PEMRET3OM2lp/FI1eADYqD+nrwkQzT0BBSf/wiZOIqLuCJX1AMc4bLWQmqy2j/F4jh7FqnvNsHnJxFDBYa0nWZfPTvX/UavaPn/vG5k0ckkmV/u9tPc6WLh7ov99097+wStQU3+Mt+uiSdGON3wOKTE23n7HppbpXk83JOB9I9MzqfM+Epy10eEQhkd61q6IUwLuyw/9gFceaD0xzKegH0tuX8N/lVHpggnx01sFqahV+otEAa8sUi76NecNd7I3jiVtWwElZQVsfVB581W+f1wtHMcK7Y5wlNdWrbnT64Yx4GHTmRtjBscRDn+orGqy7qXU0cmxVdcpDpRegrDpTPV3Q2L2d06nKCqoBczErNpOcVkRJXtyWPwTwHWaUqsdTpZTcBa4MZo1OwsoKSuieNujynF+9BaHvT4HvYHDWYvIsBoCM0Cjky8BQoYTk7KUTX9S9qX0Pgz8tZ3eLffzzM4CSvZtZ81EM3CJqve8f5cnTtqYsHQrJftySBkFuM5So1bR3g+5KX4uaCdfJ/cj9f3wQp7SNmVFunFSJ5X5b2IHbk/NoXifMsyRMgr4ooLD/+PZVater5+MSyDH2+77N2Q4cWu3U1KWR9odAJf4f1oX0KncXQ0YPFi/hU7g5/SN8UrtrudtY3l38ApENmyjJjHBTy/cXlcLo8LxWTx+KSVPRHsFxbZSzsYbGc9NSDuvE6C29t+KrZ4aKsjQvW8zrOr7zVZPDaMJb3Uwys1SxEg/f1PdpI8E52Y+bQQwEXqDtq6FVg+BGSaC+Rxz3teZ3mEQcZ1i16unIex+kmIGGktxnNzLhvQFSmo3di4Pv+hnJvcdU5gaPhAYSPiYzo91nsgvpJrhJCUbx4AHEvXAdMJwUPpmBU04eb/iODCGxPiOv17DvnxKHTAheabSC/LF3zldPEu1AwibztyYUOU4r7cQNVb943I2YT9TjQOwTEtgwjClXQeE30lUOEATeN3TXcF2zgGYuf2u27xT8iNm8tSayUSar2DNyyZ9/lwfKXaF/7bziLhrCrcPGwghoUSMVsd2jKIeJf3eMAixkLSliJKy7aTcaqzkm+e8H2LqLWYfx3EJuxr0TuSmMWuGMns/r85YrwPaON6A378Tf8Hin4UCZm660bsoNDqWCddD/W4ldT4rfS9f/2QOGaumqDezPXBO3awqP5+amJVqgMkh5WZjje4RNSmamopjVL1zBPQ9ZYOwUaOhrh4f91qK8UvdwTA3xYJ1nXGcPTDtvk53s4QTQbSantYtq8apZbXUtzoYC+E3+7hh7GZ9JDiHsP2y8i0RI0aZ1IlfzTxbYJgUZuBzzNl8nbFan6L1PiNnJhBh7H3WF7LmsZexNk1h454iSvZsZdODYwyVDBptHDig9JjNQ9z9v8A0VlCqjQH7Cga3xJIYCbxnpbJO6SWapyUT56+X6Fct+/aeBvNk4n4ewDEaz2mERWkrezkF1gYlFdpYy9vvKn9cQ8xDCLMogdq2/w0qLys3cE1njvB2PYAZ8xD33oHRJK1MJiLEgTXrSYoNF/XQib9mY8Fupf3TorG4LlGZ9zQ7T+oqtdd2Bk2XT3FAd7x6ET+K9PTcO8hz3q9y4KyvVPwQzGYAMxN+/Ry73/C+iOnH/bx7vUpQ8TUe6vd4O/P+9aFm76tUNt7GI1vylOPYt5sXNyQT5b63CfycvlHnbMp4cH0hea0e3u0m48cTU5dPRt5oT2rXl/HjvdLL9l357vSzfVea14SosFGjO9/7beN1ekT4OO4eVUGee4xcmW+TvsumlqmZBV3ZhqPKTY0njd16XLs79DeuCFYhx7/g8LCbuOd78KPbTGy/rT/wA12NZmovNIM63Qv3mLOuiur/nmphQ41xbV9QS0GeMrM38T5jQhv46kslpVpXyOKEQmOpN+t64vV/8CGjmXu/Ou55NJv4dRW6Qhu5CxPJBSJSctzjSTW7X/WbXleEEpcymZ2PH2LnUzZllrXXY18+PjRAOy7dBwe4HzV6sJ10eBvnNHWamQOlDqxZC7Bm6ercGM2se0Nh4BTibqyg9IsKMh/RnzuE/nwO9xg6rQNHzSFzTT0L11WQ+1g24blLiTL7ajuNmSG6mNp+2ylq8tKIz9Ot0I43IK3b170/rX2jEkgKq2C3/Tg5v0khx10zWv2wjFDumRPNzo8qqNy8jMrNup2563STjrx/29DkcACn2Dp/Llu1lSEDiBj/ryxfNYXwkF48J3/Cx3H3qHxyFybytydy+KGhOCo5mYiF+aTG5sOoZDJSLGRUKMHaX+/Wm+dv1i1mJSXJ+hUA47gnBqy0F1iUSWzpCxOJB8BC6ja1neblkHE+UTlWXVlgx2nUxuv0CAuztqzkb7G6v7OYlZSo1zhjWURKDpvGAywlNyWN1NhEpWCUYVy7G/SpTwhzOS7y9b+EUXCr9z2F45PPSS3/igHfUyaF3TcBkoa3PlZFCx+fhI1ek2qaeTohhBG4sL7Rj5f1RT3MV5v69eFmkh4/xJAHnyP3F75Sww5OvPgkmfuVSU3mEWOYGmPh/V2HsMWsdM8CjV9XodzDuJSLliVyCo8sfZQJI9Q0ud8AowvOrlNsnbuW0iFz2PSnZP+pZmrJm7+M3XYg8lFeeV4/mat18HBzB+cGSn+3gK1nxrLmtX/zmtHsdnYvj2ft5W8XG5TJYL7OydVAVV4Wf9x3GlsjMNCM5acz+e3SOURqgffKB+RlvkRJ9SUcLhhwo4V/nvmvpD+opa614/VcwOt3LWNxXi3ckszWTXMI/29j2w3AfOudPJL6K+J+qp55AG1n35VGap7N83saaCbyX+bwy8Uz3cer1dHfMHkLpH0Bx2lKN/0nuz6opcE9Gco7SDW88xIbdrzFCfcEqtZ12tP+8Xbg/av9rI51Z1jVT+Qar30KVj6+7r/DdH873XFOQvSUPhWcAWi6wtX/9Z5O2W9wGNdd5+lStXx1icar/r4sub87iHt8hfOzz7jG9QxyP2rVO3y1qW8NHFixgJyPxrB457OdSA2rfFzcOqPhzdU8/OJpIn+1nY0JgfbkOuHkSzz8WDlN055id5qvGc19TyBt134gE76dJnfuaoq/sJCyJYekUQBOGt58Rhm//vnjlCy/07iREEGnj4w56wwY2mocWR+YUR+vMtbxLMbAjO6Z594NzB1ytozdH3V2zLa71bKvWBkD7swjUYFr71Gjvqi32u67yonTBWBmYIg6+dN5lY//71nATNxUCcyib+h7PedvGV9t2qO6qecsepb0nDuv6exb/GFTPlVnPcMcobfcybxf/Zq4n/iciiZE0JHg/A3z1aZCCCG+2/peWlsIIYT4lpPgLIQQQgSZLgfnQX3mSengI20nhBDCly4H56gRxjUiUNJ2QgghfOlycJ79YxN3jZReYEcM6g93jVTaTgghhDAKaLb21atXWWYNlZnFQgghRC/ocs9ZCCGEEN2r3eBsMpno168fA0Pga3+fiCmEEEKIbtNmcDaZTJhMJkJCQoj8fgtVXl84L4QQQoie0GZwBujXrx8hISHce/NV9p1u4d3z0oMWQgghelKbE8JQJ4W5XC6cTid1DS0cPDeY6r+b1A+XF0IIIUR3azc4t7S00NLSgsvl4tq1a7hcLlwuF83Nze5yIYQQQnSfdoMzugDd0tJCc3Oz+/9CCCGE6H4BBWeNVrUDmwghhBCigzoUnIUQQgjR89qdrS2EEEKI3iXBWQghhAgyEpyFEEKIICPBWQghhAgyEpyFEEKIICPBWQghhAgyEpyFEEKIICPBWQghhAgyHfoQEvmEMCGEEKLnBRSc5bO1hRBCiN7TbnDWArF8K5UQQgjRO9oNzvJ9zkIIIUTvajM4a2lsp9PJ2c9c/MdxMzPGmIgaAYP6G2sLIYQQoju0O1tb6zkfPDeYGWNM3DVSArMQQgjRk9oMzvrx5uq/Kz1mIYQQQvSsNoMz+tS2S3rMQgghRG9oNzgLIYQQone1OSGsubmZpqYmHA4Hy48M5flpJmMVAPZ83ELVRfj6mrFE+DKoP0SNgNk/9t2eQgghvtu63HPe83EL756XwNwRX1+Dd88rbSeEEEIYdTk4V100rhGBkrYTQgjhS5eDs/SYO0/aTgghhC9dDs5CCCGE6F4SnIUQQoggI8FZCCGECDISnIUQQoggI8FZiCDn+KiQzF8mER+bSPoum7G4i2wUL0kkPjaJpPSXOOEwlnecfVca8bGJ7sV4zFVZicRnHfNa1xPsu9KIX1KI3VgAcDSb+Nhsqozru1FVlqcNPEsaxfXGmp2h/N6MbetxjA2xiWw4alwv+oq+F5zHmtie4L28MNG7yn0TW9fRL/MBMPGMjzL3EmfiPu/dBp+z+aTGJpKUc8pY0j0aP2DrQ4nEJyyjtN0LSi158xOJf2AzJwL+OlEnjrOnKN3xNMvnKsGn/Yu2k8qnEomPXU3pZXXV0ewAt+0q5YLX/Rf1NtqusYJNj+VTebHJUOBhf2MZs2ITeTj7A/zXUvltqyYcZ8p5fN1bNBhKOqIqK5HUiknklhVRUlZESVkOd1e0ESSN6gtJ77YAFgRiVqrtoCy5KZC7sLvfP+LbqE8F5/mTTWwfaVwLg4eZ2D5Z92lbzW19uIeLZvXftmrRYrxKBhsnlXmF2BlOfPxtxsJe1/TnV9lth7C4WG4PMZb6cbmctb9Zy9bXjlPtaDesKM4Wkvse8LNYpg4zFvZNbbbd/1RR6QLzxKW88kYRm+ZZDBW6ysKsLUWUvLqSmBuBk6f4m7FKoI5mk2GNJmPLHMLcKy3M2rKSmLp8dgZTL278UkrKlhJlXN/DwuYlE0MFh4OpLURQ6jvBeayJ6BsAmvnovQvM3a4sr3yihFpuaGFFhPcmjk8+d9fzLJ+zHQAnK93rrnIBgGsc1tYVXGW/9+6Cy+Vyit4DfvYQc28xFnaT6+9k8atFlLzxHHHhxkK9Bg6UHIeQsaQmjTYW+jcshql3WIhLe47dq6KNpT6dKCnHznCSUqIZYCzskwJru6h7ogkdaFyrCEt4juKyIl5Zemfn22ToOO65w7iyY6qOVEDMeB8Bbxz3xID1iL63rqXT9ZmIY2xYmE8NNnIXenrPXulhXY+/KiuR9Kxs0mMTA++Za7S0to+eujvtXl9Iemw2G9TX11LEXmn7jr5uK1o2xvs1tPbZkOUv0+GDlhWJTSQ+S6J/X9dngvP8ocq/F858yu9tIxh8k7Icsn7K4c/hwplLZP7VextTyA3uep5lKErn5DoGutcNQul3m+inrbtxiLouOFXvLqQaM3H3ewepVuNcsxewPPsYDVoiQP0D3lD6AbnpKcyKTSQ+YRGZu07jGW70vmC0O0528nV2VYP53plMuF5ZVbNjEfGxiaTuqPWqWpO7gPjYRJa/0QCEMvWZHBZPG43Z2GP05XI5rx10QOR0Zvi4IQn7XhOV2WkkzfB1Tk7s1s2e9HlsEknpm6m86PTswGmnMnsZSQnqeSeksDy7AruuiheXjQOPpRAfm8jDG4+5X8txspDMhWrbui+Wfi6uPtouUMaxXZ+v4ThNaeYyHp6t1smsMNYwaMLZqaSRjfpzEDHSd88+fKQFztk8gcyaz99SlFRvRkwFGUsKsTOOFduSicBC6rYcZoUr55hxLllNk+eQem691zhrjRVSyooo8eqtd0D4OO4eZePtd7R9HuOwFWImjVN/rsA2MoeSsiJWjFf+flLzRpOhHQ/5pPpqdz/su/KxEs0941ED8HpsKcr+S56IxrrO+2/Nei5cOfdV2vH4c4wN6yqIeUJNn4+sxWqsIvqUPhOcvz8I4Bpn/mc4A3QXctN1w9lRcoFVhvUAg4f3az2WrE9/91WNFRTtd0DkHOa119tpbKD64HrWvuY9ccS6+RmKzziUMUrnJSrzVrPpz/6iUFucVBaX08AYHkn2pNcj4qcTCdhL36JaW+k6xYH9DWCeTMqMUHfdQNWU7OWEy0xcykx8bW0vzSbzoA2Hq/U52fesJjXrENVfaOnzJhxnDpG5cC0HLqNcKH+3mMyDtTi0ZnA6qD6YTerj5T7GYR1UbVxNzkkHoTEr2bZ8HGaAK+VkPpZPZb3atm3y3XZurgYqDx8HzAwxGwsD4DrF1tTVbH2nloZGbZ2hjs7QYaHAKd59p/XZdrtRyTwyXvlvVHIyEXVHqGx1A2ijssJGTIoWeC3MSommpuKYJ8j77Kl3hIUJ0RbPPo8exao7NrBw90TPDYd3dkA5HqxH/Y8hW9d73UCl5kHqNjWdXn+Mt+t0+x//AKleNwoQET0usJuOo0d1QV9Ln4u+rI8EZ210OIThkZ61K+KUgPvyQz/glQdaTwzzKejHktvX8F9lVLpgQvz0VkEqapVn8klJWQGvLFIu+jXnDbM6bxxL2rYCSsoK2PqgcnGofP+4WjiOFVrPYJTXVq250+uGMeBh05kbYwbHEQ5/qKxqsu6l1OFnbLU9rlMcKL0EYdOZ6u+GxOzvnE5RVFALmIlZtZ3isiJK9uSw+CeA6zSlVjucLKfgLHBjNGt2FlBSVkTxtkeV4/zoLQ57fQ56A4ezFpFhNQRmgEYnXwKEDCcmZSmb/qTsy2fPx1/bab3iGQvIfMeB+SdziP+JdzlA2DxPj8uXpj/vpfQLYNR0nlHPyV9dgIipyUQNdWDNWtB+tqQVC+E3+3ifqerP2+BmiyfQ6P8fbsF3f9vG3+rAuk6XHVhXAXX1dOjQ2hE2L5kY9ebAXlfbRkBsOzvgk2FCWEmZkhEAwFZPDaMJb3PIKDD2uloYFY5nVxZ+2N7frghqfSQ4N/NpI4CJ0Bu0dS20+rJLw0Qwn2PO+zrTOwwirlPsevU0hN1PUkzrQUjHyb1sSF+gpHZj5/Lwi35mct8xhanhA4GBhI/xP9bZnhP5hVQznKRk4xjwQKIemE4YDkrfrKAJJ+9XHAfGkBjf8ddr2JdPqQMmJM/EMLXAw985XTxLtQMIm87cmFDlOK+3EDVWvcg6m7CfqcYBWKYlMGGY0q4Dwu8kKhygydDjvILtnAMwc/tdt3mn5EfM5Kk1k4k0X8Gal036/Lk+UuwK/23XPT67fAmAiOjp3K6eU5tcDpq+Mq4MXNQkf71IY6rYoN6G75CuBBgtVetZunsi1zjuibHx9jvHqKzAq6fsre0bkA6zhBNBLfXdcKcRNmq04aZFubERfVcfCc4hbL+sfEvEiFEmdeJXM88WGCaFGfgcczZfZ6zWp2i9z8iZCUQYe5/1hax57GWsTVPYuKeIkj1b2fTgGEMlg0YbBw4oPWZzR3OnjRWUamPAtxoLgVtiSYwE3rNSWaf0Es3Tkonr8CzrWvbtPQ3mycT9PIBjNJ7TCIvSVvZyCqwNSrq5sZa331UuskPMQwizKBdk2/43qLys3MA1nTnC2/UAZsxD3HsHRpO0MpmIEAfWrCcpNlwEQyf+mo0Fu5X2T4vG4rpEZd7T7Dypq9RO24XNy6Fk33bWxJhxfPQyxa0jXvsGKiH//9XWKqn+K6co3qtlR1qrLi3kRKOSXfDq4QVq/FLd+LFGGVf1ThUrY87uCV/5+dSMmsSEVq+npJyteZ79VWV1xySs1qImRVOTt57cm5PbPG/vGxAbxXn+JsEFwDjeffR1cvVp7o4YP54YKsjTxuOPHpUx5z6ujwRnCDn+BYc/V/7/o9tMbE/oT94jP6BgwQ94+B/6Ac3UXvAO0j7HnBO04N4X1VKQp8zsTbzPmNAGvvpSSanWFbI4IZH42YtJf+20sZZCGwubnUbOew4IGc3c+9VxT/eszzRy6wBs5C5U0opek3F2v+o3va4IJS5lMmaOs/OpcqpbPfalm3i2Tp2opB2X7gLc5qNGen7P6U6mTjMDSsp2Vmwi8bOXkaemsWfdGwpRU4i7EfiigsxH5hIfm8is9EJqXBD68znco05I1AwcNYfMNdGEumrJfSybKq1brJ8xO3sx6TkV2Fwo48a6AN9+2wEhoUyYNBaAr1vdf+pmOxvbTp39HBYzhdtDwPFOtpJJeWgtuSeN/XePL790AGO5J8bvEbUralURudFHSHWPs6bxdnRO6wlbMZPgWaWO1+NXasDKXajMXA6bl0PGzcrz/K3qBqLOs622+PxgjvHjiaGN3r1m/FJyU2rJ0P4+SCbX15BFQJTHzCx56sS+dRXEPNGJmyJQhqK2JYO2rzyIkbR2n2ZqaWmVHHZrbm6mqakJh8PB8iNDeX5a68lUv9vvd/Nu53Jc5Ot/CaPg1v5e6x2ffE5q+VcM+J4yKey+CZA0vPWxKlr4+CRsPKtf18zTCSGMwIX1jX68rC/qYb7a1K8PN5P0+CGGPPgcub/wlRp2cOLFJ8ncr0xqMo8Yw9QYC+/vOoQtZqUy7nk0W7mYh6iTg0IGYImcwiNLH2XCCDX1qdXxISIlR3nW1nWKrXPXUjpkDpv+lOw/1UwtefOXsdsORD7KK8/rJ3MdY0Pset93+KOSyd0yhzAaKP3dAraeGcua1/7N94zms3t5PGsvf7vYoPQQfZ2Tq4GqvCz+uO80tkZgoBnLT2fy26VziNQC75UPyMt8iZLqSzhcMOBGC/88819Jf1BLXWvHG02Gmlqt37WMxXm1cEsyWzfNIfy/jW03APOtd/JI6q+I+6l65gG3ned3EfOEOlvYzUbxEu3mychzfI73XmLN+nJqGmFA2FgeWT6Ov63YglV7P+hUZanBr9vTxkKIjupTwRmApitc/V9t6qmi3+AwrrvO06Vq+eoSjVf9fVlyf3cQ9/gK52efcY3rGeR+1Kp3+GpT3xo4sGIBOR+NYfHOZzuRGlZpgdfHxbkjGt5czcMvnibyV9vZmND5nla7Tr7Ew4+V0zTtKXan+ZjR3Ad1qO3U35d74llPvTmvfMDW3z1DqV2CsxDBoM+ktd0GDG01jqwPzKiPVxnreBZjYEb3zHPvBuYOOVvG7o86O2bb3WrZV6yMAXfmkajAtfOoUZ/Uwba79RYigQbrepJmtPVZyp2lpscfeoZSO4YZv0KIb0rfC87fVbcoH8QQHL3H0aT8qYiS13/d9hhwlw1kwtoiSsq6kCkIOh1su2Ez+bc1k4m8sSfmc+sNwHzrZNas7cB4rhCix/S9tPa3jK82FUII8d0mPWchhBAiyEhwFkIIIYJMl4PzIO+nmkQHSNsJIYTwpcvBOWqEcY0IlLSdEEIIX7ocnGf/2MRdI6UX2BGD+sNdI5W2E0IIIYwCmq199epVlllDZWaxEEII0Qu63HMWQgghRPdqNzibTCb69evHwBD42t8nYgohhBCi27QZnE0mEyaTiZCQECK/30KV1xfOCyGEEKIntBmcAfr160dISAj33nyVfadbePe89KCFEEKIntTmhDDUSWEulwun00ldQwsHzw2m+u8mnC5jTSGEEEJ0h3aDc0tLCy0tLbhcLq5du4bL5cLlctHcrHz7ezubCyGEEKKD2g3O6AJ0S0sLzc3N7v8LIYQQovsFFJw1WtUObCKEEEKIDupQcBZCCCFEz2t3trYQQgghepcEZyGEECLISHAWQgghgowEZyGEECLISHAWQgghgowEZyGEECLISHAWQgghgowEZyGEECLIdOhDSOQTwoQQQoieF1Bwls/WFkIIIXpPu8FZC8TyrVRCCCFE72g3OMv3OQshhBC9q83grKWxnU4nZz9z8R/HzcwYYyJqBAzqb6wthBBCiO7Q7mxtred88NxgZowxcddICcxCCCFET2ozOOvHm6v/rvSYhRBCCNGz2gzO6FPbLukxCyGEEL2h3eAshBBCiN7V5oSw5uZmmpqacDgcLD8ylOenmYxVANjzcQtVF+Hra8YS4cug/hA1Amb/2Hd7CiGE+G7rcs95z8ctvHteAnNHfH0N3j2vtJ0QQghh1OXgXHXRuEYEStpOCCGEL10OztJj7jxpOyGEEL50OTgLIYQQontJcBZCCCGCjARnIYQQIshIcBZCCCGCjARnIUS3qMpKJD7rmHE1tFPWo+oLSY9NJF5blhRiN9YJJvWFpMemUVxvLBDfNX0vOI81sT3Be3lhoneV+ya2rqNf5gNg4hkfZe4lzsR93rsNPmfzSY1NJCnnlLGkezR+wNaHEolPWEZpuxeLWvLmJxL/wGZOBPx1ok4cZ09RuuNpls9NUi6e7V7AnVQ+lUh87GpKLxvLusHlY+Q9uYyk7PaOI3jY31jGrNhEHs7+gCZjYZ9yjA2xiWw4alzfSUeziV+Yj+WJIkrKlCXj5nxSAwzQ39gNhRB9LTjPn2xi+0jjWhg8zMT2ybpP22pu68M9XDSr/7ZVi5aAI8w3xEllXiF2hhMff5uxsNc1/flVdtshLC6W20OMpX5cLmftb9ay9bXjVDsCDCtnC8l9D/hZLFOHGQu7wZmj7K6qxeE0FoiuiFpVRMmqccbVPchGcV4FESk5rBjvWRu1aiUxdfns7K4bgO4WPodNZTnMCjcWiO+avhOcx5qIvgGgmY/eu8Dc7cryyidKqOWGFlZEeG/i+ORzdz3P8jnbAXCy0r3uKhcAuMZhbV3BVfZ77y64XC6n6D3gZw8x9xZjYTe5/k4Wv1pEyRvPEdfmxaKBAyXHIWQsqUmjjYX+DYth6h0W4tKeY/eqaGOpTydKyrEznKSUaAYYC7+jwhKeo7isiFeW3hm0beLVCzWkmpWeso3iJeuxAtZ1nt5zVZYuJa1P9x7NJn5JNhuWGNZr6o/xdp2FuydaDAXjWFFWpAvYNoqX6F8jmyrAviuNDCtgXa/rPSs9e+/j9rWfNDZkpXml0O270nyn1o3n8b4hrW1My+t68l5tE2A2QPQdfSY4zx+q/HvhzKf83jaCwTcpyyHrpxz+HC6cuUTmX723MYXc4K7nWYaidOyuY6B73SCUfreJftq6G4eo64JT9e5CqjETd793kPK+mCUSP3sBy7OP0aAlAo5mKxeW0g/ITU9hVmwi8QmLyNx1God7L94XIZ8XP72Tr7OrGsz3zmTC9cqqmh2LiI9NJHVHrVfVmtwFxMcmsvyNBiCUqc/ksHjaaMyB9LYvl/PaQQdETmeG8YbEZefEjqdZpKXHYxPdF1rwcZGLTSJp4dMUf6Sctfviua5CqW9d76mrT2267FRmLyMpQWtfY9s5qd+/3pOm1y/uC6gTu3Wzrk4SSembqbyo666rx5u+y4bjw5dYlKDUS816y/279LrgG49T0+7xguNkIZkL1fdCW/vqFjaKn9WlmrclY1uXTRUWZm1ZSQwQ84QaPI9mk3EumVwtJR1jIzdfd1x1FZBSRImvnqatnhpGE25cb2DftZ7cm1eqae8cUkdVkLfLRti8HDJigJiVao9fuXmwpeTojtvzd2HftZ5ctGNNBqvN8yJHs0nNG02G9hrkk6pvX/15/H+e1b7aKsKar7ymsW1uzidzl+41RZ/XZ4Lz9wcBXOPM/wxngO5CbrpuODtKLrDKsB5g8PB+rceS9envvqqxgqL9Doicw7w7jIUGjQ1UH1zP2te8/3Ctm5+h+IxDGaN0XqIybzWb/tyZXK6TyuJyGhjDI8me9HpE/HQiAXvpW1RrK12nOLC/AcyTSZkR6q4bqJqSvZxwmYlLmYn31g0ceGwxj792HNsXAabHacJRf5zcx/6TqoBHMBxYn1pM5kFd2rtRabs1e9T2/ehlVucco/6nv2H3viJKXl1KjBm4cTobt8whDLDvWU1q1iGq3cfahOPMITIXruWAYRy95vhLZD5Zjs2p1LNbt7DFGujvKYDjvVJO5mP5VNar74VeYs1Tb1TC57CpbClRxgoA45dSorYZ2Kg/Z6wQzT26lHVnhM3L0aXbbfytzlBBU3+Mt+uiSZmn9sTD55ASY+Ptd2yAjcoKGxHR49RjHccjKZ4ee9WRCogZr56jhVkp0WA96rlx9HseFmZt0fXybfXU6It16fmoVUVs0o5NfCv0keCsjQ6HMDzSs3ZFnBJwX37oB7zyQOuJYT4F/Vhy+xr+q4xKF0yIn24IUurYnno3XVJWwCuLlIBZc95wV33jWNK2FVBSVsDWB5U/6sr3j6uFSupP6Ul4bdWaO71uGAMeNp25MWZwHOHwh8qqJuteSh0dHJfWuE5xoPQShE1nqvGG5OTr5H6kntMLeRS7z1930Q+fwyb3+iJK9jzFrGGAq5b6i+pFuqyIkifU9HqM1pvSjZWe3cvOKiBsMhk7CygpK2L3qnGYgZpDx5Rg44ImYMj1/hLMpygqqAXMxKzarhzrnhwW/wRwnabUakhOfnSKc1FLeGVfEVvVi29NrTII0+qYjQI53kYnXwKEDCcmZSmb/qTU67nxYQuztqi9x1YZBQOvbMd63jaWt8USTgS11LeV8cGTSVKWfGz+3u+2emqoIEOXXciwan9XSlC3jPIVHJWbioiRvsra55UJy6vFPXI3fiklT0RjXecp77aJdCIo9JHg3MynjQAmQm/Q1rXQ6ssuDRPBfI457wu01xGkXKfY9eppCLufpJiBxlIcJ/eyIX0BSTMSiY+dy8Mv+pnJfccUpoYPBAYSPqYD48QGJ/ILqWY4ScnGMeCBRD0wnTAclL5ZQRNO3q84DowhMb7jr9ewL59SB0xInum5QKnsZ6pxAJZpDzH1FrPvcVenncoXV3vS3rPXUtzR2d52uxJE7IfIeGQu8bGJJGUd80oR85MpxIfBZ+9kK7+Dh16gasQ40jIfJRLg4lmqHUDYdObGhCrHer2FqLHqxdtp6L+GjOVfl08hNATC1ZRqbmqA7RfI8Y6YyVNrJhNpvoI1L5v0+XN9DHN0N6VHqNz8KBO0fKVkq/LzqXHfJOWQcrOxRhvCx3H3KK1nq6eMDafvUoKqNmlMO5a7DbXdLOFEEK2mpnXLqnGAhR+OAlud8bUALITf7OPmOBD1heRZLaRuU19r9STv8vFL3ceRm2LBuk43jCP6vD4SnEPYfln5logRo0zqxK9mni0wTAoz8DnmbL7OWK1P0XqfkTMTiDD2PusLWfPYy1ibprBxTxEle7ay6cExhkoGjTYOHFB6zOYhZmNp2xorKNXGgG81FgK3xJIYCbxnpbJO6WGbpyUT1+FZ1rXs23sazJOJ+3nrYwyzKIHNtv9VDpz1nZ6tyl5M5ptniVi8nZKyAna/sJSYto7jiys4jEkW8xDMAKOm84zWw9QWNf3aZH2V3fZQ4lerveKy3ezetJKpt6g3UiMsyu/NXk6BtUE51sZa3n5XuXgPMQ/RvyKERxLZ+pQDE8DxAoRO/DUbC3Yr75e0aCyuS1TmPc3Ok9676x7Gx6WUwOa71wmcsyk3GPWF5FmNhW1R0sc1eWlePUr7rvXk6tPT+qzS0dfJ9ZfWDh/H3ep4tEI5DyXIW5gQbaGmQs1GcIydeZ5gHDVJn8ZWbgg8ae722Pibuquq/Hx3Wtu+y3vCWdio0TAqnHaG2EUfYmppadX/dGtubqapqQmHw8HyI0N5flrr8drf7fe7efdqukLK1Ju453vGAk0zH33YzHPnQrhvAiQNb32smv97qoUNXoM3zTydEMIIXFjf6MfL+qIe5qtN/aslb/4ydl8ey5rX/s09+crtzA5S09/0nSLUJrYczfZMetILGU3qlueUiTX+6gARKTnusa2aHYtIf+0SE5YXsObnrXvxAHy4maTHDzEkbDh2OyS98CIp7slcx9gQq8zQbWVUMrlawPvz08zaeJywB58j9xc+eo2uWvJ+uYzdrU48moyypUThxPrkXDb47FZYSN2mm1D0XjbxTxnOXT8p6Ddp5J71LkbXLg1vrubhF08bSgcQ9pOZpGUkc7sZqjensLzUR7/0xmgy/rSUqOvVlO7CfGp07eDNRvGSND/BRDvv9o/X/+96uOF31b6qLCXV601p3/D8RDJQ21E7N62Ku309+4hIyWHTxGOeeqOSyYg+QkbFJKU9jmYTvw71PNtgfC1je+rPP2YlGaz3HKdW5t7G8H7VHbf37yOa1JRacrVjVYNpqhaw9cdgPI/6QtIXHuFu9T2pb9OYJ1bCuvWgTpjzbm/D+1j0eX0nOAMux0W+/pcwCm7t77Xe8cnnpJZ/xYDvKZPC2g7OLXx8EjZ6XbD6SHDWAp2/IIWDEy8+SeZ+ZQKQecQYpsZYeH/XIWzG4ByijI8SMgBL5BQeWfooE0aoAdbvBVt3UXedYuvctZQOmcOmPyW3SjV7qDcUdiDyUV55Xj+ZK5Dg3EDp7xaw9YyfGxKN4zSlm/6TXR/U0tCordSCFFBXTubTO6i82AQDzUT+yxx+5HiZ4g+NFzXvNgTDRVh9nZ3/7f0stLtdrhxjw+L1WL/wlLn9bCnFa6MZ4GqgKi+LP+47ja0RGGjG8tOZ/HbpHCLVpxK6JzgHcLytftcDMN96J4+k/oq4nxpnNIhA2XelkXo+uQfH7sW3XZ8KzqD0oK/+r/vqC0C/wWFcd50nx9vy1SUar/r7suT+7iDu8RXOzz7jGtczyP2oVe/w1aa+NXBgxQJyPhrD4p3PdiI1rNIuxl53/R2n9RAjf7WdjQk9eBE/+RIPP1ZO07Sn2J32zX/YStsaOPDYAnJOmolZ8yIrJir56KYPX2LR4+XYb3mU3Bdm+gi0oq+rykokb6SWVVJuOm26LJMQHdVHxpx1BgxtNY6sD8yoj1cZ63gWY2BG98xz7wbmDjlbxu6POjtm291q2VesjAF35pGowPl+TCuouQAGMIgmZTzZ5eT8X6qxA7dPjZHA/C0VlZwMedpz5+uxxqyUwCy6pO/1nL9lfLVpj+qmnrPw48oH5GW+TMkZm5pGHoA5/BampvyW1IkSmoUQgZHg/A3z1aZCCCG+2/peWlsIIYT4lpPgLIQQQgSZLgfnQd5PNYkOkLYTQgjhS5eDc9QI4xoRKGk7IYQQvnQ5OM/+sYm7RkovsCMG9Ye7RiptJ4QQQhgFNFv76tWrLLOGysxiIYQQohd0uecshBBCiO7VbnA2mUz069ePgSHwtb9PxBRCCCFEt2kzOJtMJkwmEyEhIUR+v4Wqi8YaQgghhOhubQZngH79+hESEsK9N19l3+kW3j0vPWghhBCiJ7U5IQx1UpjL5cLpdFLX0MLBc4Op/rsJp/GL6IUQQgjRLdoNzi0tLbS0tOByubh27RoulwuXy0Vzc7O7XAghhBDdp93gjC5At7S00Nzc7P6/EEIIIbpfQMFZo1XtwCZCCCGE6KAOBWchhBBC9Lx2Z2sLIYQQondJcBZCCCGCjARnIYQQIshIcBZCCCGCjARnIYQQIshIcBZCCCGCjARnIYQQIshIcBZCCCGCTIc+hEQ+IUwIIYToeQEFZ/lsbSGEEKL3tBuctUAs30olhBBC9I52g7N8n7MQQgjRu9oMzloa2+l0cvYzF/9x3MyMMSaiRsCg/sbaQgghhOgO7c7W1nrOB88NZsYYE3eNlMAshBBC9KQ2g7N+vLn670qPWQghhBA9q83gjD617ZIesxBCCNEb2g3OQgghhOhdbU4Ia25upqmpCYfDwfIjQ3l+mslYBYA9H7dQdRG+vmYsEb4M6g9RI2D2j323pxBCiO+2Lvec93zcwrvnJTB3xNfX4N3zStsJIYQQRl0OzlUXjWtEoKTthBBC+NLl4Cw95s6TthNCCOFLl4OzEEIIIbqXBGchhBAiyEhwFkIIIYKMBGchhBAiyEhwFqKvOppNfGwiG44aC6AqK5H4JYXYjQVtOZpNfGw2VQDYKF6SSHxsIvFZpRQvSSR9l824RTc7xoZY9TVjE4mPTaO43lhHiO+Gvhecx5rYnuC9vDDRu8p9E1vX0S/zATDxjI8y9xJn4j7v3Qafs/mkxiaSlHPKWNI9Gj9g60OJxCcso7Tdi2QtefMTiX9gMycC/jpRJ46zpyjd8TTL5yapgeCYsZKBk8qnEomPXU3pZXWVGqTa37brqrL0wcNfwHJS8+ZmHv/lap/Bxb4rrY1tO2D8eGIAW51xP8c4bIWYlDmEGUoCdvR1cuuiySgromTV7cbSHnCMDbHrsaXkUFJWpCzbJvH2Qk+Atu9KC/iGoyqrd94PQvSUPhWc5082sX2kcS0MHmZi+2Tdp201t/XhHi6a1X/bqkVLwBHmG+KkMq8QO8OJj7/NWNjrmv78KrvtEBYXy+0hxlI/Lpez9jdr2fracaodTcZS384Wkvse8LNYpg4zFgaLS5zcf4gTFx3Ggm42jntioKbimHfAOnoUK9HcM16/MgDjl1JStpQo7edR4YQDYGHWliI2zbPoa3evehs2LNw9Ufca4XNIibHx9jvGmw8hvv36TnAeayL6BoBmPnrvAnO3K8srnyihlhtaWBHhvYnjk8/d9TzL52wHwMlK97qrXADgGoe1dQVX2e+9u+ByuZyi94CfPcTcW4yF3eT6O1n8ahElbzxHnHKV9qOBAyXHIWQsqUmjjYX+DYth6h0W4tKeY/eqaGOpTydKyrEznKSUaAYYC3tB1CqlV5eb0oOBqgOiJkVD3REqdT30qiMVEDNeDbLeqWJPClxJW2/I0mUdtLT20Wzi11VAXT6psWkU1yt1PT19f/s0ZhZ0aemj2cQvyWbDEj/p6nALFloH4qhV6k3B0WxS82zKMWm95/pC0vVpcLWnbN+VRoYVsK73Pi9tp/WFpOuOweuYA+yZC9HT+kxwnj9U+ffCmU/5vW0Eg29SlkPWTzn8OVw4c4nMv3pvYwq5wV3PswxF6dhdx0D3ukEo/W4T/bR1Nw5R1wWn6t2FVGMm7n7vIGVMu8bPXsDy7GM0aIkAbZyy9ANy01OYFZtIfMIiMnedxtPP6+DY38nX2VUN5ntnMuF6ZVXNjkXExyaSuqPWq2pN7gLiYxNZ/kYDEMrUZ3JYPG005kB625fLee2gAyKnM8PHDYllWBOlTy5SzmlGEukvntKdEzg+KiTzl2r6PDaJpPTNVOquxFq62b0kpLDoyUKqA+4Aa+2WRm4dgI3chf7bMMxsI3eJejwJi8h8sxM9xPHjifEKampKe9I4NQDrUsXbkrGt8z4O67lwcsuKKFk1zrNy/FJKnogGoskoy2GW141ZG/s8mk3GuWRlf2VFZMTYyM3XpZbrKiCliJJW+wQYx4onoqnJ8/wOvMbSxy9VbohGJZO7ZQ5h2Ch+Nh/LE1oKPJkIaz7F9RA2L4eMGCBmpfd5+WI85pvzyezqcIMQ3aDPBOfvDwK4xpn/Gc4A3YXcdN1wdpRcYJVhPcDg4f1ajyXr0999VWMFRfsdEDmHeXcYCw0aG6g+uJ61r3lfcKybn6H4jIMmAOclKvNWs+nPTq86gXFSWVxOA2N4JNmTXo+In04kYC99i2ptpesUB/Y3gHkyKTNC3XUDVVOylxMuM3EpM/G1tW1PNlurLinn5Gqi5s3NFJ1VC8/sIG1FPpUXtfR5E44zh8hMz6aq0bMPL04Htqp8lr/QM2OXlS+up7hOPR7nJSpf2kGlv2PxS01tn1d/v/qUdv0x3q6LJkVLR/tIE0dEj+vYuHT9Md6u06Wfw+ewSQu245dSskUb57ZRf857U9pLtY9f6h5vzogB6zrfNzUKJdW+QtufrZ4aQ42A1eWzU70RcPfUhfiG9ZHgrI0OhzA80rN2RZwScF9+6Ae88kDriWE+Bf1Ycvsa/quMShdMiJ/eKkhpaVdlKeCVRUrAdF+8NTeOJW1bASVlBWx9ULkYVb5/XC0cx4oypYeTOsprq9bc6XXDGPCw6cyNMYPjCIc/VFY1WfdS6ujguLTGdYoDpZcgbDpT/d2QhAwnbu12SsrySLsD4BL/z45yA5H/Jnbg9tQcivcpqfqUUcAXFRz+H2XzsHm6yUhlRRQ/M10JNOdsAaY6je1mIXWbtj8fvcUbb2PxCwWU7HuWWcMA1yXs2iS3DoiaFA3Wo1QZU9q2emqoIEOXDciw+ngvdIStnhpGE248F4xp5vW8bSzvAO19nBFjI/dZ36lmryxRXi2GUa3AqFkC5UbAR49diG9IHwnOzXzaCGAi9AZtXQutvuzSMBHM55jzvs70DoOI6xS7Xj0NYfeTFDPQWIrj5F42pC8gaUYi8bFzefhFPzO575jC1PCBwEDCx3RgnNjgRH4h1QwnKdk4BjyQqAemE4aD0jcraMLJ+xXHgTEkxnf89Rr25VPqgAnJM/1fhCf+gsU/CwXM3HSjvuASdvXqfiI3jVkzlBnoeXX6OtB0sYLcFWkkJSgX6VmPl/sMCt0lYua/EnfLQAgxc9MQY2kHjB9PDBUcPqpPaQOWcCJQZ1zrl/ZSvW2xhBNBLfU+erNV+fnUxKx034yk3Gys4Z99V5rP2dXhI/30YusLybPqbn5WTzLWCJyux56bYsG6Tjc+LcQ3pI8E5xC2X1a+JWLEKJM68auZZwsMk8IMfI45m68zVutTtN5n5MwEIoy9z/pC1jz2MtamKWzcU0TJnq1senCMoZJBo40DB5Qes3mI2VjatsYKSrUx4FuNhcAtsSRGAu9ZqaxTetjmacnEdXiWdS379p4G82Tift7BYwRgCGYzgJkJv36O3W94B6sV4wHXMf6wMJvisxbSXy2i5I08ti7vYMq3lS/57Epv3AwqqW3ruvXes7TDx3H3qAryDBO5uvQIV/g47h7lPca9Qd/b1LIM9YXkWT2btSds4iQirOsNx3aMnXm2NlLvNv6mVq/Kz/ef1raEE0EFh9VjtL9zxF3X+HhW2KjRulnqQnxz+khwhpDjX3D4c+X/P7rNxPaE/uQ98gMKFvyAh/+hH9BM7QXvIO1zzDlBC+59US0Fecqs6MT7jAlt4Ksv+RKgrpDFCYnEz15M+munjbUU1vVKGm92GjnvOSBkNHPvV8eMteeGfUxs0l88a3a/6je9rgglLmUyZo6z86lyqls99qWbeLauQlmlHZfugtmpx7S8hHLPnGhCcVC5eZm7Z6wsai/J+SVNLqDxGJkPKJPBFm80PKKkO97UPKUd3BOYvGb5DlD/shoofmyuuy19j512j6hJ6mx39yxt1HHZlVjck6zWY41Z2cUx1db7tKXksGI8RCUnE1GnPHsf/yykpFgCHxIIn8OmMv1+lX3zhGcMOGziJHX/2VSFzyHFPS6dyOFJK4nRBWsl1b9e+b0Y6mYyiRj1ZcPm5ZBxs3rMsYnEr6sldXUXng8XopuYWlpaJYfdmpubaWpqwuFwsPzIUJ6f1noy1e/2+92827kcF/n6X8IouLW/13rHJ5+TWv4VA76nTAq7bwIkDW99rIoWPj4JG7WJQgA083RCCCNwYX2jHy/ri3qYrzb168PNJD1+iCEPPkfuL3ylhh2cePFJMvfX4nCCecQYpsZYeH/XIWzazFXtMZkQwAWEDMASOYVHlj7KhBFqmlyr40NESo5ysXSdYuvctZQOmcOmPyX7TzVTS978Zey2A5GP8srz+slcygdP+OxguWflNlD6uwVsPTOWNa/9m3s2uBfteHWzc6uylPHVmCc8k4Ya3nmJDTve4oR7UhjqjGTl2d76N5/mmZePY2uEATeOZsLcSBz/WU6V+1gCOV5VXTmZT+/QTUCzkLpNGXe270ojNc/maUtsFC9JI7fOU0cI8d3Wp4IzAE1XuPq/3lNa+w0O47rrPF2qlq8u0XjV35cl93cHcY+vcH72Gde4nkHuR616h6829a2BAysWkPPRGBbvfLYTqWGVj0DWGQ1vrubhF08T+avtbEzw3W/uFidf4uHHymma9hS70775D1sRQoje0GfS2m4DhrYaR9YHZtTHq4x1PIsxMKN75rl3A3OHnC1j90edHbPtbrXsK1bGgDvzSFTgfD+mJYQQ33Z9r+f8LeOrTXtUN/WchRBC9Jy+13MWXaM9NiKBWQghgpYEZyGEECLISHAWQgghgkyXg/Mg76eaRAdI2wkhhPCly8E5aoRxjQiUtJ0QQghfuhycZ//YxF0jpRfYEYP6w10jlbYTQgghjAJ6lOrq1asss4b2/mM/QgghxHdQl3vOQgghhOhe7QZnk8lEv379GBgCX/v7REwhhBBCdJs2g7PJZMJkMhESEkLk91uoumisIYQQQoju1mZwBujXrx8hISHce/NV9p1u4d3z0oMWQgghelKbE8JQJ4W5XC6cTid1DS0cPDeY6r+bcLqMNYUQQgjRHdoNzi0tLbS0tOByubh27RoulwuXy0Vzc7O7XAghhBDdp93gjC5At7S00Nzc7P6/EEIIIbpfQMFZo1XtwCZCCCGE6KAOBWchhBBC9Lx2Z2sLIYQQondJcBZCCCGCjARnIYQQIshIcBZCCCGCjARnIYQQIshIcBZCCCGCjARnIYQQIshIcBZCCCGCTIc+hEQ+IUwIIYToeQEFZ/lsbSGEEKL3tBuctUAs30olhBBC9I52g7N8n7MQQgjRu9oMzloa2+l0cvYzF/9x3MyMMSaiRsCg/sbaQgghhOgO7c7W1nrOB88NZsYYE3eNlMAshBBC9KQ2g7N+vLn670qPWQghhBA9q83gjD617ZIesxBCCNEb2g3OQgghhOhdbU4Ia25upqmpCYfDwfIjQ3l+mslYBYA9H7dQdRG+vmYsEb4M6g9RI2D2j323pxBCiO+2Lvec93zcwrvnJTB3xNfX4N3zStsJIYQQRl0OzlUXjWtEoKTthBBC+NLl4Cw95s6TthNCCOFLl4OzEEIIIbqXBGchhBAiyEhwFkIIIYKMBGchhBAiyEhwFkJ8ex3NJj420bNkHTPW6GE2ipckkr7LZizoVvZdad7nuaQQu7FSt+id8xF9MTiPNbE9wXt5YaJ3lfsmtq6jX+YDYOIZH2XuJc7Efd67DT5n80mNTSQp55SxpHs0fsDWhxKJT1hGab2x0KiWvPmJxD+wmRMBf52oE8fZU5TueJrlc5MCvHg6qXwqkfjY1ZReNpa1p4GqHU+zfO5mqoxFHdB0ppycFYt4fE93XaA603ZBqn4vyxMSiX9oM1WNxsLeZd+VRvw6yCgrokRdMlhPfGx2l37/waYqK5HUvNHe53lzPqnfsvP8rulTwXn+ZBPbRxrXwuBhJrZP1n3aVnNbH+7holn9t61atAT7VdJJZV4hdoYTH3+bsbDXNf35VXbbISwulttDjKV+XC5n7W/WsvW141Q7moylvp0tJPc94GexTB1mLGxPNYdfO071F05jQYd8VlXOgY8u8WXXduPWqbYTbasvJDMPUrctJUq3OmpVDqmjKsjrtZ6fhVlbitg0z2Is6B5Hs8mwWnyc50piqODwUd1K0af0neA81kT0DQDNfPTeBeZuV5ZXPlFCLTe0sCLCexPHJ5+763mWz9kOgJOV7nVXuQDANQ5r6wqust97d8HlcjlF7wE/e4i5txgLu8n1d7L41SJK3niOuHBjoV4DB0qOQ8hYUpNGGwv9GxbD1DssxKU9x+5V0cZSn06UlGNnOEkp0QwwFvZJnWy7YBU+k41vFFHy6q+Jut5Y2Hvs7xyhZtQkJrR631qYEG2hpuIYdl8p2qPZXj3rqixfKXFluw1Zaso8q7SN/Rhf4xgbdOnnDWrwtO9K88oaVWV5Z5GqsnynkquOVEBMMrNanec4VpQVsWK8Z41X6luf9j6aTfySbDYsSSQ+No3ieuXmJv0bHQ4QfSY4zx+q/HvhzKf83jaCwTcpyyHrpxz+HC6cuUTmX723MYXc4K7nWYaidE6uY6B73SCUfreJftq6G4eo64JT9e5CqjETd793kPK6mMQmEj97Acuzj9GgJQLUMbgNpR+Qm57CrNhE4hMWkbnrNA73XrwvIO4/WH9Ovs6uajDfO5MJ6gW5Zsci4mMTSd1R61W1JncB8bGJLH+jAQhl6jM5LJ42GnMgPcbL5bx20AGR05lhuCFxnCwkc6F6PsYLivtCsx4rABVkuOt5LsStxu0SUlj0ZCHVasNobZuap1wka/I89fUXzjaPxchH2ymc2K2bPen+2CSS0jdTeVHprgfWvoDLTmX2MpIStPeDn9911jGoKyfjIaVe0op85bzVoZP4+fnUeF4GzuxQ1v9uLw34uJj7TKk6qN71NItme9rX895Uj8PXWKm670Vquwei/rwNbrYQZiwAwkaNhrp66r0CtUIJduOJUt8PGeeSyS0roqQsh9Rz671+z9Zz4UrZqrg29+Nho3jJemwpOUr6eVsytnXK31bYxElEWI+qbXaMw+cs3j9bLdw90dj7tlF/DiJGGtf7cDTbK/WdcXM+qfr3ZF0FpCjnOSvcRvGz+VieUNPk25KJsOa3fQ0Q3a7PBOfvDwK4xpn/Gc4A3YXcdN1wdpRcYJVhPcDg4f1ajyXr0999VWMFRfsdEDmHeXcYCw0aG6g+uJ61r3lf2Kybn6H4jIMmAOclKvNWs+nPncnTOqksLqeBMTyS7EmvR8RPJxKwl75FtbbSdYoD+xvAPJmUGaHuuoGqKdnLCZeZuJSZeG19pZzMx/KprFfPp7s4Hdiq8ln+gp/A6kuHjsV32wHY96wmNesQ1V9oe2nCceYQmQvXcuByoO3rwPrUYjIP1uLQfrWNyu96jXG8/Fw5GY+9RNUV5UfHR4VseL0WboklMRKwl3PgpKf6ifJD2PHxu2hDTe4ylucdx6aNRTsdVB9cz2+yP6AJCz8cBXz5JV8atuPKFf4fEDE6gCDUQWETJxFRd4TKetxBMDV5HGCjssJGTMocNcBbmJUS7RWAI6LHuYO///3o1B/j7bpoUrQUd/gcUmJsvP2ODcItWKilvh6ot2G7OZmUGPXno0ex+swC+OBnAlzVkQoiUh5w3yxEJSfrgj9ANPe4e9lKKt7d67bVe9+YiV7RR4KzNjocwvBIz9oVcUrAffmhH/DKA60nhvkU9GPJ7Wv4rzIqXTAhfnqrC2PUKs+kkJKyAl5ZpFz0a84bLsY3jiVtWwElZQVsfVC5WFS+f1wtVFJiJWU5pI7y2qo1d3rdMAY8bDpzY8zgOMLhD5VVTda9lDo6ObbqOsWB0ksQNp2pxhuSRqdyQQ8ZTkzKUjb9qUA5/1XqxTF8DpvKiigpW0kMANG6yTOesbqweWqPRl2Kn5muXHzP2bDr2jY3RWmvCK0HVKYbU2zvWPT8tR2nKCqoBczErNpOcVkRJXtyWPwTwHWaUqs9sPY9u5edVUDYZDJ2Ksexe9U4zEDNIU+QAaDuFFXD7mfj60UUr1GO1X62hiZCmfpANGYcvP22OvGwsYLSgw7v30WrNjZorGD3G5cgZAyLtynHUvzCHCKAhj8f4QQWwm8GLl/hClC9OYX42EXknQUcX+IglP/PVzfYj/CRFvfvzcheVwujwgnHECDrbdjcQdDG3+rAuk4X6NZVqD1uH/zuR8dWT41X1iaRDKv2tzmOe9Tt7e8cgZEWwkei/FxX63Uj4KG0mdff9vil7vdkhvsXofSw9Zme+IX51Gg3Az54ZeDyajGMGIpe0EeCczOfNgKYCL1BW9dCqy+7NEwE8znmvK8zvcMg4jrFrldPQ9j9JMUMNJbiOLmXDekLSJqRSHzsXB5+0c9M7jumMDV8IDCQ8DGdH+s8kV9INcNJSjaOAQ8k6oHphOGg9M0KmnDyfsVxYAyJ8R1/vYZ9+ZQ6YELyzNYXihEzeWrNZCLNV7DmZZM+f66PVH37mi5WkLsizZ0CnvV4uc+Le5s6cCx+2+7iWSWlHDaduTGhStn1FqLGqjcAzqbA2tduV47ffoiMR+Yq6eqsY62OQzGcpPRfEGmGARNXKhf4f5/CAGDA+ATiw8BxcC+VjdB01EqlCyJnxrb+Xfhz2Y7dpdxcbF2oHMus3xR69cjCR1qUQHKxlvffG0DYsEu8faRWCabcQiDZW413T1ZP6RHrg13UJKVHXPXOEXCvV3ryMVpq18fNnJHv/ehYwonwujFUF/XGLWpSNDXnbdSfh7snWgibOAnOH6OyQvnZl6hJ0dBuylkJ4vqbSWXJ8TFWrQwj5FktpG5T662eZKwhekEfCc4hbL+sfEvEiFEmdeJXM88WGCaFGfgcczZfZ6zWp2i9o8iZCUQYe5/1hax57GWsTVPYuKeIkj1b2fTgGEMlg0YbBw4oPWbzELOxtG1aDypyOjNuNRbiSYm+Z6WyTuklmqclE9fhWda17Nt7GsyTifu572MMnfhrNhbsVs45LRqL6xKVeU+zU5eK9WjgMzV96+Y6xh8WZlN81kL6q0WUvJHH1uU+LrA6X352xWfqOqBjaavtRliU3629nAJrg/IajbW8/a7SQxpiHqLUa699zUMwA4yazjNaD15btmjpWs0YfmQ8DrfRzJg5BlzHefsdmzKBraNDE0PMDAEwjyXthTwlG2AIeGGjRgNNOD86ytuN41mcMha79Sgnrn4JwyxYOjLBLHwOa1Igd6H32HdVVhq5+tQywPjxxNTlk5E3WrdeGY+25nnGwKuy/IyJa3zuRyd8HHd7zRRXxtnd49iWcCKs+eSdG014OEqq+9wR3sZHL1wzfikZMbZW52nflUaGMsECtMCf97phfoWveQEaG39TD6sq3zDfQPSKPhKcIeT4Fxz+XPn/j24zsT2hP3mP/ICCBT/g4X/oBzRTe8E7SPscc07QgntfVEtBnjKzN/E+HxfGr9TxurpCFickEj97MemvnTbWUljXKymr2WnkvOeAkNHMvV8d93SPW6WRWwdgI3eh0pvUT4ip2f2q3/S6IpS4lMmYOc7Op8qpbvXYl27i2boKZZV2XLqLYLuPGunH2WYvJj2nApsLwMwQNY4pBjAoBOAUOerEJ/cFyvklTS6g8RiZDyiTlRZvNKR+NQOVfq69dK170pe7XQI8lrbb7k6mTjMrY8ZZC5TXmL1MSfHeGM2se7Ut2mnfn05XZvLXlfP4fKW3qi2+Zv62JXRGMnFmqMx/mqLq1r8Lz2S61pPuNhwFhk5m1s/N4DhOzm/8TJazhBOBjQP5R/gyehxRUXdyu/0tdlsbICyM73teLiBh83IoeQLvNDIrffR+x3FPDK0mcIXNy1GfF1a3tUaT0eqmRs/3fjwszNqyEos7vbwea8xKz5BI+DjuHmWjBjXljoUfYvPdC9eJWlXU6jxT81B6vtpwyvil5KbUuuso5cZ2UIXPISXGk9I/PGklMbpgLXpHnwnODBjKjpILzD3T+nsWlfT1p/z+rK8rt5GPdHhf8WEZJXYIm/2QYWav6tYHSLt/NGY1220eMYZZ8ybj4x4edco6hAzA8pPprNn2rO8Ulz/uMeA5JP28dXrd7Y5Y4sPAbr/kc5Z1+zrzqNEAzLeOY/Hvf0+K1+vdSeq/TyfyRh8PYV0/hZRFY929swE3jibmV9N9XrzCEpaSFjU8sBnmvo4lgLaLXPQfZDw4xtNbHGjGEpXMxq1LvR9RarN9LczKepbFEz3viU4LuY2pccPBfgl7p4YmBhK1dCNr7tedk1G4BQvKuUT9820wdDwxP2nAfhnMoyw+bmICoBuD1aeQjaJW+S7znsOhBTP/zy633o+xrjafw9fxKHU9WQ3jtm0wnqePlLX3nApd+filrW5Y9Oe9Yrz+sawOHJPoElNLi/9Q1dzcTFNTEw6Hg+VHhvL8tNYznX+33+/mPaPpClf/1/ujh/oNDuO66zxXypavLtF4tXUQV/RnwPeMM7u/wvnZZ1zjega5H7XqHb7a1LcGDqxYQM5HY1i889lOpIZVR7OVXmrMSp8Xo0A1vLmah188TeSvtrMxoVOXzcCcfImHHyunadpT7E775j9spTv0WtsJIfqsvtNz1gwY2mocWR+YUR+vMtbxLMbAjO6Z594NzB1ytozdH3V2zLa71bKvWBkD7tC4Y4f5f9So7+qtthNC9GV9r+f8LeOrTXtUN/WchRBC9Jy+13MWXaONTUlgFkKIoCXBWQghhAgyEpyFEEKIINPl4Dyov3GNCJS0nRBCCF+6HJyjRhjXiEBJ2wkhhPCly8F59o9N3DVSeoEdMag/3DVSaTshhBDCKKBHqa5evcoya2jvP/YjhBBCfAd1uecshBBCiO7VbnA2mUz069ePgSHwtb9PxBRCCCFEt2kzOJtMJkwmEyEhIUR+v4Wqi8YaQgghhOhubQZngH79+hESEsK9N19l3+kW3j0vPWghhBCiJ7U5IQx1UpjL5cLpdFLX0MLBc4Op/rsJp8tYUwghhBDdod3g3NLSQktLCy6Xi2vXruFyuXC5XDQ3N7vLhRBCCNF92g3O6AJ0S0sLzc3N7v8LIYQQovsFFJw1WtUObCKEEEKIDupQcBZCCCFEz2t3trYQQgghepcEZyGEECLISHAWQgghgowEZyGEECLISHAWQgghgowEZyGEECLISHAWQgghgowEZyGEECLIdOhDSOQTwoQQQoieF1Bwls/WFkIIIXpPu8FZC8TyrVRCCCFE72g3OMv3OQshhBC9q83grKWxnU4nZz9z8R/HzcwYYyJqBAzqb6wthBBCiO7Q7mxtred88NxgZowxcddICcxCCCFET2ozOOvHm6v/rvSYhRBCCNGz2gzO6FPbLukxCyGEEL2h3eAshBBCiN7V5oSw5uZmmpqacDgcLD8ylOenmYxVANjzcQtVF+Hra8YS4cug/hA1Amb/2Hd7CiGE+G7rcs95z8ctvHteAnNHfH0N3j2vtJ0QQghh1OXgXHXRuEYEStpOCCGEL10OztJj7jxpOyGEEL50OTgLIYQQontJcBZCCCGCjARn8f+3d+9xUdX548dfSGA5VnaT3xp4yUq21m1TvpuYSpuaiShKGIqSJZVpLqx5y26imaZmrm5pVlCGoiaiKBdTuyAGVmip1WKmYKB9MTPsK7oNDvz+OOfMnDnMDMN1h3w/H495AOfzmXP5zMx5n8/78zmDEEIIDyPBWQghhPAwDb7P+antTp8u3OCoTYUQnqNsXRyxyaW2BSEzyJjZS1+lSRUsjCAhx7jUn9hVyxkRYFxef8bthDyfxvRgfQ3PUrAwggSa97VoTi2v59zDi6Th9o/X+thXGdSnZh394xEAvHjJQZn1McSLQfar9TzHUogNjSBq+SFjSeO4sI+VYyIIGz6VzBJjoVERyY9EEDbydQ64/e9EzVQcO0Tmu/OYNiqKsNAIwhbuNVYyMJM3J4Kw0FlknjaW1aacgnfnMW3U6xQYi+qg8kg2y6c/wbObdCfsBqlP27mv8fe3qZkpWDqesNAopm357+6zEpi7kJCVRob6SGCR7X1akkp8aByba/181LGuUcgM6/YzstJIjIHECUsb9D62KWXzpAgSjkeTqG1jVTSlL0awON9Y14GGHJdwqkUF50f6e5HU0bgU2lzvRVJ/XQ+0ylVv3kKV+tNVLaqb4CzZqMzkJadSRnvCwrobC5td5Udr2VAGfkNCucPbWOrE6WxmT57Nyvf3U1hRaSx17FgqiZ8Bd4Vy3/XGwtoU8vH7+yn81WwsqJMzBdns+OYU5xq2Gqt6tV0dNPb+XkpKfiiFkGCCdMuCoqPpmpPfSIGxfvxGRxNCLh+7Ezxrk7+RxOK+JKyIxE9bFhDJMzH+5CSnUmZf22MEzUz73faaaVHBuYcXfa8EqOKbz04wKkl5rPlRCbVcWc30rvZPqfjxrLWe7XGWJADMzLAuO88JAC7ysbZs/Xm226/Os5zOJu0z4K4xjLrJWNhIrujJxLVpZGxZwhCX6bNydmTsB+8exEZ1MRY6d30I993pz5C4JWyY2ddY6tCBjGzKaE9UTF98jIUtUj3b7nfNl6ApSWRkbeCV4f7GwmYV0NEfjIE4IJJlWVMIYi+LJ6RwlFISJ9h6jgULI5QsUGgEYdYepYO6+Usd1KuvvSy2rkvf41V6xYsXqttykJkq2J1b4wIEwG/0cjJ0Advt41IzDta6kwwBXn/cC5ey2G5/nRxHSSrxoUtZrO7D4nx1f6zHoxynbf8aK6vw39Nixpwf6a8E5xNHynj6YHt81B5G9X9O8dBgP249ZVs+qDdEtffi/KkqJufV3Oeaqpg33JsOWMjZ0orVxuIm5KhN3VH4egzTMmHIS8lMvNO23DhuxBXtCOzzOM/F9aKdt/rBeDGXkCef5dod/yTjSAWVvu3pHTWF+NHdMIH6AVmEbTW1jG8dfIuxT2dTef8cNsQpvfij7z5B/Pun8HtwCYkP24LO0cTxxG8qJ/DxJF4Z3s62DnW/XI7nnc7m2Ufe4sAt41jzaji6Z1NxMJVlr6fzRUkF1j64tq6SVOInpHBUV9+mLwlZUwhyNLboa8L/z+H8Y2YkgSYHbavTNWY5y0YrgcTlvhg5aDuriiJ2vPka7+0povyCuqxzNInqCbOx9peyvayc/zo7jij7a+rQg1FTpjDiduXdgKWcguSFvL3tMKXafmisx2WmLOctFq/cTeGvlYAPplv6ET/zMXp38AXr/kLsqgXclDmLhK2lVPq2J+TJOUwfqIQA4z7b7aemtv3V9uXN3RT+YsvIOFxXrUrZPCmOxGL1T137gxo0JuzmHu3zkb+UsOQAax27cVG7untZHJrCzU6ep+dobNWWbp9CkLqPn/RVjy9/KWEvFqmfWXX/Mey3leG5zrh9XNpnGevnyn7/lXML6ni29h5WxrddHAfKZxjda6hfb9m6OGJ/iFa34eYxebgW03O+rjXARY58ZQvMAF6Xt+fdjBPMNCwHaNO+Vc2xZH36u6W6kEva9goIjGS0LjA7dKGcwp2LmP2+/dhdzusvsVk9uWE+RV7yLJZ9VJ+8p5m8zdmU042Hom3BpWvYYAKBssxdFGoLLYfYsb0cTP2JGaoPre45mpHOAYuJITH2gZlfspn/dAp5+mDYGMwVlBakMO21mr0Np+q0L47bDpS2Whk7leU7dYG5NvXZ34pdzH90EZnaewGoOLmfxKdfsPaCyncuJeH9w7QeuoTNWWlsfi2SrgB/nsQaNWCUbZpF7MIP1cAMUEnFkQ+ZP2E2O+zmBpRS8Po8nt1aan3v5Sx/izx3j9GN/eXgauIWfmgXmOvPnxErbOOwXYuVeR6OeqAABE/R9TZLKTlurKBXSmKKuh675zmQs0jXK4xQL3KU4EfJXj4p9ueePmogCh5JbOdSPtlj+8x37dvL+brdUYfjKtidS9eYkdaeuN0wQH4+OfTlb+pEMyU9r6r1OHRlBn6jl+suXkr5XruYasFaSHDWeufetA+0LZ0+RAm4q8fcyJqRNSeGOeTxY8m1K/8gizwL9A4bbB+ktHEY68SR9ax5Qu3J/mCYWHNVD+JWrScjaz0rH1Te8Hlf7FcLezE9K42MrOXEdrZ7Vk3W9LphDPj6wYwKMUHFbj7+UllUmZNOZkU9x1Yth9iReQr8BnOf8YLkgplzAN7tCYmZwrJ31ivHr31YAyJZlpVGRtYM9UTQVzfBRz3BaR9w3aSbzS8NVk5Gx0sp07VtYozSXl1jbPWtV+i17Yues7YDyjNTyPwVuGkYL2nryEqzO4E3xv4e3ZhKngX87p/Bmi1pZGxL4pk+JrAU2U6KZuWizadNG3XLRodIW18EmAiZmcTmrDQyNi1n4u2A5TCZOfajlgcOltJ7ykoyti0npjNgOcZRdVPGfTZya38vnKMC4KoujHh8Dis3Ku3X4F6U9j5aFU3XnEWOJ0uVpBJvDaKL+MRYbtWL6VkzCNEHXWcBn5oTwjKydJms0hKO0oUAZ5ktl/wJ6OTg/GDk9nEpgftosi6tPSGFoxRRUgJlxUXQOQCHu9qQ47AbIkihtLbzVgvQQoJzFT9dAPCi3ZXasmpqJOQNE8Ecjjlvq0/v0INYDrFu7WHwG0ZUiJIu1Ks4mM7i+PFEDY0gLHQUY99wMpP7zgHcF+AL+BLQrf5jnQdSUimkPVHRxjFgX4JGDsaPCjK35lKJmS9y9wPdiAir+/bKt6WQWQG9o8OVXpteh3DmPNOfQNMv5CQvJf6RUYQNf4L56w4rJ2k3VZ7MJXF6HFHDlQ/5iGez6z4Zpg774rzt4PvvDgPQe2Q0d/jVfJ1ppP39pewUAGXbFzF2eARhQ8czf4/9nrbrG0rvK6BkQxwjQiMYEZ/Ob7dHkjBzgHJxePIYhRWA32BGhbRTjuUKf4J6qMHQbOjBBo0jfqAfePsTtSKNjKwkYm6xr+KMO/vLXY/zSkwP/CuL2PzmbCaOHEXYA3Gs3FPX1tnLYkdjwQH+OAvzBSkpHLUG0uXEdDLW0NMugmsJ+LXxD6CrGvzqI6hf35rj6mgBTxm7df+4lGCvvxDUX0z4de4CxSU43NV6H0cpm5NzdducwT3GKi1QCwnO3iSdVv5LRIfOXurEryoWrDdMCjPw8r6SNtd2sH+YLjdWa1G03mdg+HC6GnufJak88/RqcioH8MqmNDI2rWTZg90MlQwulLJjh9JjNrXVxuzcdCGXzJ0VEDiYoY5OrjeFEhEIfJZDXrHSSzTdH82QOs+yLmJb+mEw9WfIvY73sV2fJ3ll/QblmOP64m85RV7yPN47aKwJUM6ZXwyLLHv554SlbD7mT/zaNDK2JLNymutU4LkzvzhMXbu1L7W0XUAX5QImb2MKB8ocXFA20v62VV/zrsPmsGaT/mSq612nryXvQnceWpGslG3bwBuLowm6Rl1JB3/lvViWzfqccmUbF4r45FOlN9bW1FbbHABd/xiozm2oO3f2F0wEjn6ONzalsXnjEhIe7E67C6Vkzv8nO4yvu0u9+FtIaY1blsrWpdilZmtQMxeUpJLsZMy/xu1HAf7448/NzqK+KwG9uEef/s3fSKI+PVyb4JHEds4lwW7i1l4Wv2ifnnbruNRgfzR5o7XNlMlhahsGB9vNMlfaUtXA47D2/vM32uYItGAtZkIYlb8Qc9+1/O1qY4Gmim++rGLJcW/rhDBn/n2omsV2s4NayoSwIpIfmcqG0z145v3n6H2FofjIu8TGb3Xce9Im7mgTr4y8uxC7YoluQoeDOoZJNdqkr97T1vPMvY57d3z5OlHPfkhbv/aUlUHUa28QY51dbpx4pqObeFP50TxGvLK/xuQyK6f7296wvX0sH/oSO+xGNtQJYRd2Mf+BFeTpizSGSUBlm6YSm1hkV8XaLm7uS61tV7GL+aNWkGcchdH2pbH2tySd+EmrOWrcjm4SoDL50NA79faha/BjTJs5gABvJ3UArupLwjtTCLrCNvnH+cQsN94PbuxvjYlyGm8nn5ta1FifXfvaJoyFPJ/GdH/d5MPO0ST03U1Cbj+1vqEu9u8VZ+3iaEJYTfZtZ/sCEfcnRxkn49l9CYl+UmVtx6Wb6KUwTCjVfUa6xkTjn5xinSDm9DiMk86M7aL/3IXMIIFFbrSZZ2s5wRmwVJzkt7/6sf6Wy+yWV/x4ltjs/+Bztf1sbceq+fYgvHJMv6yFBGct0DkLUlRw4I0XmL+9iAozmDp0474Qf75Y9yGlxuDsDViUk6x/4AAemjLOOqvWeYDRnUAsh1g5ajaZbSNZ9k50zVSzlXpBUQYEGmdZu3EyppzMp8az8oiLE2uN/fXBdEtPHop9nCF/th+Vr/jyLWYv3KWbuGSbrV2ydR4vrd5P6QXwuaoLvUcFUvFmNgXGGbqWUnbMmUfil6eoUIOE8+DsYF/cbbuyvSS+ksKOI6VUaJ1n3b40yv4CFd+ks+LNVPJ0k6zsTqguZrtbL5iMM7q1meNTIglUe9iNEpzd2N8awdTRe1x4CMOsdWHVooIzKD3o8/9nP7WzVRs/Lr/cluOt/s8pLpx39s+SL7MGcZv/YD5zhotcQetrr8GYLW5KjtrUsXJ2TB/P8m+6MfG9BfVIDau04OHs1h43lW+dxdg3Dte8JaqxubrVqIVqtrZrFIdJHDWLzb/6E7NiOVGdAcyUb31Jmc9w77NkTOtpfJIQjpWkEj+hhBi72xe1W8KEXgsZc9bxuabGOLI+MKPeXmWsY3sYAzPA5fhe24E2zRyY6+RYFhu+qe+YbWMrYttmZQy4PrdEuc/FrUYtVnO1XWMxY7YAmPD1Vrvv5vN8++9jgIkh90lgFnUQEElMSC4Jjm4JE3ZaXs/5d8ZRmzapRuo5i0tH5bFd/HNZCgXHypW0uLcP7W7qyejHn2SI9Ys/hBCNSYLzf5mjNhVCCHFpa3lpbSGEEOJ3ToKzEEII4WEaHJxb29/VJOpA2k4IIYQjDQ7OQR2MS4S7pO2EEEI40uDg/MBtXtzdUXqBddH6Mri7o9J2QgghhJFbs7XPnz/P1Jx2MrNYCCGEaAYN7jkLIYQQonHVGpy9vLxo1aoVvt7wm7NvxBRCCCFEo3EZnL28vPDy8sLb25vA66opOGmsIYQQQojG5jI4A7Rq1Qpvb28GdjrPtsPVfPqD9KCFEEKIpuRyQhjqpDCLxYLZbKa4vJqdx9tQ+LOX+mX4QgghhGhstQbn6upqqqursVgsXLx4EYvFgsVioaqqylouhBBCiMZTa3BGF6Crq6upqqqy/i6EEEKIxudWcNZoVevwFCGEEELUUZ2CsxBCCCGaXq2ztYUQQgjRvCQ4CyGEEB5GgrMQQgjhYSQ4CyGEEB5GgrMQQgjhYSQ4CyGEEB5GgrMQQgjhYSQ4CyGEEB5GgrMQQgjhYSQ4CyGEEB5GgrMQQgjhYSQ4CyGEEB5GgrMQQgjhYSQ4CyGEEB5GgrMQQgjhYSQ4CyGEEB5GgrMQQgjhYSQ4CyGEEB5GgrMQQgjhYSQ4CyGEEB5GgrMQQgjhYSQ4CyGEEB5GgrMQQgjhYSQ4CyGEEB5GgrMQQgjhYSQ4CyGEEB7Gq7q6utq4sKF+TI5j5Dul9gtvGEbShoe51X4pUE5G/HhePmRYfO8M9jzXy7Cw6dnte5doNiZG8gdjJYf2MufeRexU/xo4N43ZfQxVPMEPqYx/OIXvAPBn8rvLGdXRWOl3bs9S+ryQq/7Rl8UfTSHYUEUIIf6bmq/n/NN+9v9gXAhcKCDfGJiFEEKIS1jzBWdK+eTzcuNC2HeIHOMyIYQQ4hLWPMHZW/nxdW4+ZwxFXxfsV35R67RcvZj9URp71IdHprSFos8U6+u0R1LaQggP1CxjziF/7UHO5/uBHszOfI6BV2glh3h12GzSzkHb7t3ocOiwOhbqaMzZzI8frebl93Zz6IcKzOrSttd2oef9w5n8UF/+4KurbuXgeb4mOnXrx+hJIwnr1s6uds0x52Hw0WpefmcX+05UKs/9SzizZkTyp2v1z3Qx5qwf4+wSzcY3B/Dz5jd5bf0+vj5TCd4+XHtzPx6f+jBhN5u0Fdo591U6S1alk/99OecswBXt+FP3AYz+eyQhNzo8cMcaOuZsLiNn1T9586NjHD9bCfjQtuNN3BMWzeQR3Wnr6CLLUs7X+uMFl8+zew3uncH2wYeIeyGb7y6A79VduO/vM3j63krWx8bxWpFSbeDcNGZ1yeXNRRvJOFzKOTP4Xu1P8JBxTH2kJ9fq98vFmLNx23tmdLE/Xl8Tnf4ymKf+EU3P/6etUEc71rX7+Fqt/6d7H2f2P/rCBsO6/wtzKoQQLUOz9Jx9bw9UJ4LtJ2+fruDwPvLPKb/2vK2brsCogvx5sYycl80+XWAGOHemiJyUpYycnEqxRVcAYCll/cSYms8zV3D8UDYvT5zAExsME9fs/MK+VbOU559Qg4q5guOfp/BE7FLrvtfJuX28+vB4nlix1xaoLJWcOfwhLz/+BC/n648OoIKvV03l/qdWs/OwGpgBLpTz9eepPBsTy/TNro6hEf3vLp6Nmsizmw+rgRmgknM/HCZjxWzuf/gt9hnbxFLK+omG4wW750Uv2IvxaVZFG4l7WgnMAOazRfyf5RpjLY6nzSYyZinrDymBGcB8tpSclJcYNjGdH41PcEdRNtONx2uu4PjnqcTHTGW9cQ6FpZT1kycox6qr//V25f353UVDfSGEcKJZgjNduvGntsqv+QW22V8/fr5fPWl2oXt/f+ezor9KYcFHFcrvXQbzRmoaez5az9bn+mLtvH6fwup83XMwk79oFq8d1gcEo0q+XjWPtw4bl6uKsnl5g9o1Mzqby6trnZS58tNh8k8YF2oqyFj/oV3q/1zO60xztg+gXLj8axavfmVc3sgspax+dgU5Z40FOieyiX82227/z2x9nde+V35v+9fH2Lg9jT0715MU08VW56MUMoyBTlNUxHe6iy7f/zeM0ffWzBR899WhGkMmVt+nsq4+7VN0iHxnx2sp4t00+5mMX//Lxfvt+xSeTWmmiyghRIvXDMHZn24du9Ozp/LXufx9akq1nH0F6snqhu70uLktNU+5ivwM2wl/4COPqelkX669dyQP6FKyx4t0J7+fslm9Uw3owLXBk1iTqQb1xcO41ZrmPMXqjXut9Wq4sS8vvbuePR+l8VHyJEKuthX9uO9g/XpkV3dn8uIkPvoojY82zCBCnx49VIjtWqGIdatsvUrbMaTx0YY5jLtZq1dB2sZcu4xCYzN/9C5vadcI3l0Yp+7/np3rWTO1h+0i6VA6m9RgDKXsyNCOxp+HJw1Whh68fbn1oZEM1KpRymFnwRng5mHqBVkaH6U8zJ8cpc6BTgOnKO2zcz1JE7qhXg8q2YdD9QyM+td/5Th62lbKuUOHba//hVzWZdreb3bP2zCHcd18wJjZEUIIJ5ohOCu6/1lNW/+0m5zDhluoumtpb8eCn3My0cripJcCnNmzl6+1P9r2Z/bcAXS+AiWo93yYJ4e0p1P3/kx+bgFbpzob+2vHqBlTCOmoXDb43jiAx4b524pdbN85ExHPzWFUz3b4Ar439GLyQz2MlRRF+Xzyv9ofvZhqPQbwvaE7j82KpJNW/HkB+hGDxpafp07cAzpFT+Exdf/x9qXzkOeYGqKVniJ/X5n6uz+jErXXzjC2bal082LCRMSEhw3j+w7cNo5/zeqrtI+3L7dGPc4DNxgr1VU3nnpV9/p3C+fJIfZzFKy+KiDHGnz9mfyS7nk3dOexVycT4uSiQgghjJotOF97Wzc1bV1O/ueldrdQ9bw90K6uU+YKivflkvb26zw7cTz33z+Vt5z0uA4X6nLVPXvS03Bi7PmPN1i77ElG3duNa60T1Iy607O7/ZLWl9n/XXf+3GrL6ALg29bxJDBOlHHc+sdenh0YQZ97dY/YVFu5pYjjTtqi4Ur5Ubfu48lx9vtxbwTP6u6H++6IgzT8hTK+y9/F+n8tIv7hGO69f6mbt9B1p+dfjMtqanvzTbbeOwA+XKnr5dZL25u41RDgr2zjeKU//qDrmXfsRS/jJLsr+nKfzOAXQrip2YIz3bpbA+R3BYfYqd1ChT89/tIO8KG1s56FuYiMOXHce38MY6cv5dWUD8nRT45yRF/mbL216ejnfBy83tpzXW29wN+TM/t4a/J4+gyZyPhnV/Da5r01JvW55oOvG69fh+tqThJrsBuu4TrjMmfMuiyKty+t9WUqd45DCCFonuDcnutuQOkBqePOHNrIm/nq+Fzb7vTsAuBHZ2NvA4AKdr4wlZdzSq0ndN+ruxAyIprZi2cwzuFzDAH53Lk6BAMdJyfZ/4q2g3lDdx91zUcdb4lqgJ5/T3Kwfd1Du0XIUsRbk19i9be2L59pe2M3BkaPY/Frj2HNhLvSJYDOxmWeyNfH9vu5c/yfvkxldnUxKYQQOs0QnE20Vcd6/3S7Nl5bzo8/qb/e1sXleDMndrHuc+0PEwOfS+KjzUt46e+RDOzpz5VOeiOdb9Lljr89zCHDidG8fR73x8zi5eRcvvvfeoXupnfDNbae+7l95DubVd7ktAssxb7PCpzf+qT3+RZWW8fM/XnszfVsT17A7EfDCb7tGqcTAFuiP3TUzUX4aS851klxqnO72LHHsEwIIZxohuBs84fu3XUzaBW33tnd9UnabtJVN3oH6ybkWJzP8v3Dvf34k/bHuQ+Z88IuirV7ZX/YxZxV+zl34jAZ7yxl/OOrbZPHPEm3ngRbG+wUq5+eR8YP6oXEhVIyno2xjftOTnd+K1GD+dLzLt196J+vIG7VIc6YAcyc2fcu463j4TG8qs1M018Q3dCD4Jt1r/QPpbrx9N+BvwTpJnydYvWcpeSor5X5p0O89dQK3YQxIYRwrVmDM927G74qsR3Bf/GzW1JDWxNXWv/Yz7r3DiljzReKSJv+Ojt1J7z/O68L5DcMZtxA20SrM/krGDtECSD3Pmx/v+6tYwbbArlH6c7Dj+iC4tn9vPzwKCUIDonjZW1oABMRj4YbJkS5o5TXHjZMMjM+YlP5Ebh2WDQRutvIvtswm2H3R9Dn3lEMm77Vdi9y92ge1oYv2ra1XYz99CGrM8swA+af9vLqs9q3lCnM2jeHtFRX9GVcZHvb3ydyeVZ9re6Nms1qY09aCCFcaPrgrE87ewfaz3727s6frPfq2qdOra4dzGMjbL3l7zbM5v6BEfQZMpVXv6rAVzfW92PRUd3Ysi/BMxYwuZtuLNCBa4Mn8UqkLiXpYa4d8RyLBzq5fQcAH/40YQFPuTGjuUG8u/PUq+P4k6s0x7V9WfzSYNtFwl9GMvkvWvtXkLNkIvfeG8G9UYtIOwG+unV9d9zpN7O0GLc++hyTre9ne77dxvGYW4PsQgjRHMG5o35CTztuvU0XaG4LpJs1ePvS1pjzVv3p7//ijUm9+NPV2oneh7bdejDuuZVsT3kYraPG5x+SoY1lA3j7M2plMhufG0zPjiZb+tzXxB+69WLy3JWkvjTA/nuXPY6J4FlJbH91HAO7taOtdhDePlzbrRdPvbqKN6Ka6eKiSzhvbF3JSyO60ela20WP79X+9BwxhY0pU3RpeIB2hC1ertTXblfz9qFT9/489WoSH7082Nqz/jEzi30tPe3r7c+olUm88UgPOmnv1SvaE/LIHLa+Fq774hulHYQQwpkm+ccXQgijcjLix/Oy+sU7tz6ynKSYZrqoEkK0OE3fcxbikrCXOfqx+ujX2afN0LOYKc58jTd1X8XdST+7WwghDKTnLESjKOKt6Km6W8dc8O7BS1ufI8TpN9MJIS510nMWolF0YdyMwXSqdf6CiYGzp0hgFkK4JD1nIRqR+adDZLyTwqZ9pfz4k+1rSn2vbsetfwll3KPDCL7R1ZR3IYSQ4CyEEEJ4HElrCyGEEB5GgrMQQgjhYSQ4CyGEEB5GgrMQQgjhYSQ4CyGEEB5GgrMQQgjhYSQ4CyGEEB5GgrMQQgjhYSQ4CyGEEB5GgrMQQgjhYSQ4CyGEEB7G7e/W/jT/C+MiIYQQQjQBt4OzEEIIIZqHpLWFEEIID1OnnrNWtQ5PEUIIIUQduRWcq6urrY+qqirr70IIIYRofLUGZy0QWywWLl68iMViwWKxUFVVZS0XQgghROOpNThXVVVhsVgwm80Ul1ez83gbCn/2wmwx1hRCCCFEY3AZnLU0ttls5tgZC//ab2JoNy+COkDry4y1hRBCCNEYap2trfWcdx5vw9BuXtzdUQKzEEII0ZRcBmf9eHPhz0qPWQghhBBNy2VwRp/atkiPWQghhGgOtQZnIYQQQjQvlxPCqqqqqKyspKKigmm7r+HV+72MVQDY9G01BSfht4vGEuFI68sgqAM8cJvj9hRCCHFpa3DPedO31Xz6gwTmuvjtInz6g9J2QgghhFGDg3PBSeMS4S5pOyGEEI40ODhLj7n+pO2EEEI40uDgLIQQQojGJcFZCCGE8DASnIUQQggPI8FZCCGE8DASnIUQQggP0+AvIXlqu9OnN40eXiR1tF90/nQ1k/fY/h7Ux4uo6/U17OVuqeYdvHhpOPzBWKiphA2Z1XxgXN7IHLWpEL93ZeviiE0utS3oHE3iikj89JXqoySV+AkpHDUux5/YVcsZEWBcLoRnalE950f61wzMAG2u9yKpvy7IVbm6YLBQpf50VYvqFvAPq4+lEBsaQdTyQ8aSxnFhHyvHRBA2fCqZJcZCoyKSH4kgbOTrHHC76cxUHDtE5rvzmDYqirDQCMIW7jVWMjCTNyeCsNBZZJ42lrlQkkp8aISyjdAIwkKXUmCsY+Sqfcv2sjI+hhHW9cWxudY2qqtyCt6dx7RRr9e+ry1IwcIIYpO7kJCVRob6SOiUQqw7r4ka2MMmpVJmLLDyJ3aVbd3Ko6GBeS+LQyNYnG9cLkTTaDnBuYcXfa8EqOKbz04wKkl5rPlRCbVcWc30rvZPqfjxrLWe7XGWJADMzLAuO88JAC7ysbZs/Xm226/Ow5jJS06ljPaEhXU3Fja7yo/WsqEM/IaEcoe3sdSJ09nMnjyble/vp7Ci0ljq2LFUEj8D7grlPhfZkYZz0b6WQ6yMX0TmkQrc3Ot6KuTj9/dT+KvZWNBy5S8lIcef2FVTCNItDpo5gxBy+ViCnxDQkoLzI9coP08c+YmXSzvQ5lrl8WHOT3x8Fk4cOcX87+yf4+V9pbWe7XENSuy4HF/rstYo/W4vWmnLrmqrLvNQp7NJ+wy4awyjbjIWNpIrejJxbRoZW5YwxGWvo5wdGfvBuwexUV2Mhc5dH8J9d/ozJG4JG2b2NZY6dCAjmzLaExXTFx9joSsBkSzLSiMjawYhxjJHXLXvycMU/goEDGPZlsbqmV0aCnbnQki0g7bqxfSsNKYH25YULNRlOrSMSv5SJR1enEKsy96zC3ZZFEPGw5hhWbgXKGXzpEXkADkvqr3n/KX22ZeSVOK1dZWkEh+6lMXq/mu9bYfH42Cb0jsXtKTgfF1rgIsc+ao9Prqemdfl7Xk34wQzDcsB2rRvRdJwL/uHPv3dghVuSKUQE0OG2QcpuxNAaARhD4xn2tK9lGup5vylygkgcx+JWlp2+BPMX3eYCutalBSebT21pGwPbmRdIZgGhtP7CmXR0XefICw0gth3i+yqHk0cT1hoBNO2lAPtuO+l5Uy8vwsmd3rbp7N5f2cFBA5mqDVgKvv6xPy3SBgTQdjQ8azcuYvlYyIIC41i2hbduGYdOGrfsnVxSntoY5olW4kf7uBka0h5Rz06j83f2FrXeDIOC40iaoKujrVcCQiQS4K1rhYQtNfIGCAi7FK+yvthKQWWUnY8q7R92AOzSNbvT237i5mynNeZNkYdelAf8evq2rallByHrh39jQU1lK2LI+F4NInqhU/s8UXK9oKnkBjjX8sYdSmJE/Ttqw94e1k8IQX/59WLque7kDhBa8NSNi/Qla2KpmtOCptL/BmxQrmoC3ne/gLCuVxKOy4nQ73gcHo8DrZZ+qJ76X3x+9ZCgrM2OuxN+0Db0ulDlIC7esyNrBnpxWt9bGVOtYSx5NpcyCVtewUERjL6TmOhwYVyCncuYvb79ifSnNdfYrOWljWfIi95Fss+qk/61Eze5mzK6cZD0bb0b9ewwQQCZZm7KNQWWg6xY3s5mPoTM7Sdta67jmakc8BiYkhMOMZnl+7JpuAXwFJO5tIV7PgFoJLCtF0OJgfVoi7ta1Sxi/mP2qe8K07uJ/HpF1xc4FRSUbKfxKffpKBJ3p5FZDw7i+Vflit/XjjMhlfSlXZxZ38PriZu4YcU/tIESXz1YtH6UHuqebmlhMRowdefETF9OZq7182ecs0xZ2tAzc8np3M0D2l/B48ktrOWTvdnxApd3dKSur93rPy5p492EVL78eQkqxdUAZEsy7JP+YtLUwsJzlX8dAHAi3ZXasuqqTHP3DARzOGY87b6BCDPUv5BFnkW6B02uEaQCpqpPymtZ80TSsA8+oOhl3NVD+JWrScjaz0rH1ROInlf7FcLlRRjRtZyYjvbPasma/rXMAZ8/WBGhZigYjcff6ksqsxJJ7OijuPSGsshdmSeAr/B3OcoYJp68czGJcosfe8uxK5Q9/30L/xirFsLZ+3rN1rpCWWsiqYr6gxjra1n9gLg6MZU8izgd/8M1mxJI2NbEs/0MYGliE/2qK+BNcWuPjbNYcT1gKWIkpOOUvB9dZOn6nPiLqXgm/ZELU4mY8sMQryBsmOUXnBzfy+cU7IqV3VhxONzWLlxPRlZaSwbXXsP2J4/AZ0M78XgKdZ2SLCON5TyfbGSQrYG7RdzobgEp9c3biorLlJS4tYLgjgSi6G0WNknu8xTcpHyOjeYq+PxZ8SK5cSi26f6puvF70oLCc7eJJ1W/ktEh85e6sSvKhasN0wKM3A45my63FitZbEcYt3aw+A3jKgQX2MpFQfTWRw/nqihEYSFjmLsGw5mGgPcOYD7AnwBXwK61WGc2OBASiqFtCcq2jgG7EvQyMH4UUHm1lwqMfNF7n6gGxFhdd9e+bYUMiugd3S44xNmUD96m3xo2xYICKZ3bRcVztTSvrX5pewUAGXbFzF2uJJmn79HnyIGzGXkvTGLJ7QZ6g/MZnNdZp7Xg9/wycTcbgLfXkzflkZG1nOEXOHm/t71OK/E9MC/sojNb85m4shRhD0Qx8o9dQ8hQf36Qk6KiywCgD83d1ZSyPreb/0uTOz5de5if1GlPpaN9oeSVJJzdL3uWf2MT6+n2o5H6bEry2YQUpzC/DoPGYjfmxYSnMF7/698fFb5/Y/dvUgafhnJD93I+vE3MvYPrYAqik7YB2mHY87DteDeMmm9z8Dw4XQ19j5LUnnm6dXkVA7glU1pZGxaybIHuxkqGVwoZccOpcdsamsylrp2IZdMbQz4FmMhcFMoEYHAZznkFSs9bNP90Qyp8yzrIralHwZTf4bcW8d9rCOX7euGtmobdh02hzWbHAQAoGDpROZvPUbXiUlkZK1nw2tTCHHZJuWccdr9P8y/jwC/HCL5lY1O07CBtzm+IHJnf8FE4OjneGNTGps3LiHhwe60u1BK5vx/qsMHdRA8hYSQUt04r6JsXRwJygA74E/vvv62VK/Wo22MHmVwMCHFKbynjUGr4/S2MelSvlfjYkGKo/ulVf4BdNXNLi/bs9t5XZfHY7xFSwnk/p3rmpUQvzctJjjjcw3vZpxg1JGa/2dRSV//xMvH3DmbOkiHtxhFrE9WZkVHDDImtIH/nOMcQHEqE4dHEPbAROLfP2yspchZpPba4lj+WQV4d2HUMHXM2DoOqKT89BNs9JOAjm5Y6zD9a9OOITH9MbGf9+ZkU1jjtiTdxLMXc5VF2n7pTsT1uk3LwDqZy8EkK9uJsZb2dUPgsEi6esPRrbMZ+4AujWmdVGemogKgkpyFMYSFjiJq8lJyHPacfWjtDXBIneAWoZsAFsgdtwOcYkN8BGFjZrPhSN3HhGvfX33bRTBi5FQS3j9EOYC3ibb1SEQFzUwj43l0k9wiiE1G6bGqwwN+o5er9z4r5Qk5fUlQJ4D59elH12L374u214vpq6Ip1VLME1IgZrkyzhwQSUyILf38cb8ZhFiDdS/+ppbFryutUXc+/VzeBeD8eAz7ExpHYqcZbk46E79nLSc4A96mDrT56tca48iP5Zhoc61ttvb2j07VqGN7nGLBEeOatXuetXugPdSXWWSUgd8DY6yzou3cMpK4YV0wqdlYU4dujBjdH4fX4FqQ8/bB//bBPLNqgYPbW1ywjgFHEnWvi/TvnaGE+UFZ2SnDLGt31fM2rfqorX3dERDO/JfHEXKLycmtXr6EjH+M3h3UUl8TgX3GMcLRODo9iZ07mMCrHK2pHfc9+Ri9/ZQyn6u6MOSZcS4DhEO17q8D1vfMjPq3k26sWXnUvBXNfv6ELqVtHZN3kOYOiGSZg3XZMYz568fO9ducHmx/e5dWptXX1102OpLp2nad7EPtx6M+1AsUcWlreV/f+TvjqE0dK2fH9PEs/6YbE99bUI/UsCp/qdJLDZnRoJNA+dZZjH3jMIGPJ/HK8Pr1Mt1y8C3GPp1N5f1z2BDXlF+20kjtK4QQjaBF9Zwvacey2PBNfcdsG1sR2zYrY8D1uSXKfY5v02oSHtW+QohLnfSc/8sctWmTaqSesxBCiKYjPedLjTbWJ4FZCCE8lgRnIYQQwsM0ODi3vsy4RLhL2k4IIYQjDQ7OQR2MS4S7pO2EEEI40uDg/MBtXtzdUXqBddH6Mri7o9J2QgghhJFbs7XPnz/P1Jx2zT+zWAghhLgENbjnLIQQQojGVWtw9vLyolWrVvh6w281v9ZaCCGEEI3MZXD28vLCy8sLb29vAq+rpuCksYYQQgghGpvL4AzQqlUrvL29GdjpPNsOV/PpD9KDFkIIIZqSywlhqJPCLBYLZrOZ4vJqdh5vQ+HPXpgtxppCCCGEaAy1Bufq6mqqq6uxWCxcvHgRi8WCxWKhqqrKWi6EEEKIxlNrcEYXoKurq6mqqrL+LoQQQojG51Zw1mhV6/AUIYQQQtRRnYKzEEIIIZperbO1hRBCCNG8JDgLIYQQHkaCsxBCCOFhJDgLIYQQHkaCsxBCCOFhJDgLIYQQHkaCsxBCCOFhJDgLIYQQHqZOX0Ii3xAmhBBCND23grN8t7YQQgjRfGoNzloglv9KJYQQQjSPWoOz/D9nIYQQonm5DM5aGttsNnPsjIV/7TcxtJsXQR2g9WXG2kIIIYRoDLXO1tZ6zjuPt2FoNy/u7iiBWQghhGhKLoOzfry58GelxyyEEEKIpuUyOKNPbVukxyyEEEI0h1qDsxBCCCGal8sJYVVVVVRWVlJRUcG03dfw6v1exioAbPq2moKT8NtFY4lwpPVlENQBHrjNcXsKIYS4tDW457zp22o+/UECc138dhE+/UFpOyGEEMKowcG54KRxiXCXtJ0QQghHGhycpcdcf9J2QgghHGlwcBZCCCFE45LgLIQQQngYCc5CCCGEh5HgLIQQQngYCc5CCCGEh2nwl5A8td3p05tGDy+SOtovOn+6msl7bH8P6uNF1PX6GvZyt1TzDl68NBz+YCzUVMKGzGo+MC5vZI7aVAjhWcrWxRGbXGpb0DmaxBWR+Okr1VVJKvETUjhqXA6AP7GrljMiwLjcuYKFESQwg4yZvYxFdtytVxc12kcV8nwa04ONS4U7WlTP+ZH+NQMzQJvrvUjqrwtyVa4uGCxUqT9d1aK6BfzD6mMpxIZGELX8kLGkcVzYx8oxEYQNn0pmibHQqIjkRyIIG/k6B9xuOjMVxw6R+e48po2KIiw0grCFe42VDMzkzYkgLHQWmaeNZS6UpBIfGqFsIzSCsNClFBjrGDlp38oj2Syf/gTPbqp5Mmp0JelMGx5B2JjXKbhgLHSXmYKl4wkLjWLalmbYZ3dpr8mkVMqMZS6ZObr1dZ59dBaba31fNlzBwghik7uQkJVGhvpI6JRCrDvvITVwOTzGgEiWaetcFU1X/IldpW2jboHZI3SOJlHXRhnP9yXnxQgW5xsrOlaw0J3P/6Wj5QTnHl70vRKgim8+O8GoJOWx5kcl1HJlNdO72j+l4sez1nq2x1mSADAzw7rsPCcAuMjH2rL159luvzoPYyYvOZUy2hMW1t1Y2OwqP1rLhjLwGxLKHd7GUidOZzN78mxWvr+fwopKY6ljx1JJ/Ay4K5T7XGRHGs55+54pyGbHN6c4Z7ZbLJrNKQ5u/5ADJyuMBY0vfykJOf7ErppCkG5x0MwZhJDLx24GnuYQNDPNrd6wu/UaLHgKiTH+5CQ7uDARtWoxwfmRa5SfJ478xMulHWhzrfL4MOcnPj4LJ46cYv539s/x8r7SWs/2uAYldlyOr3VZa5R+txettGVXtVWXeajT2aR9Btw1hlE3GQsbyRU9mbg2jYwtSxji8iq+nB0Z+8G7B7FRXYyFzl0fwn13+jMkbgkbZvY1ljp0ICObMtoTFdMXH2OhK9ZeygxCjGWONEf7uiMgnFe2pJGx9kmCrjAWusuXoClJZGRt4JXh/sZC4ULB7lwIiXbQi+3F9Cz7lG3BQl1mRusB5i9V0r3FKcQ66j27UpJKfOhSFqvrVXqgpWye5DgDZOt5KnXiFy7VZYsc1dN+X8pia704+2xE/lLdMSn13O0JA/h17gLFJVhXacxgqftRti6OhBwgZ5Fd29mOM4L4dR6U9WkGLSY4X9ca4CJHvmqPj65n5nV5e97NOMFMw3KANu1bkTTcy/6hT3+3YIUbUinExJBh9kHK7gQRGkHYA+OZtnQv5VqqWX3DL87cR2J8DCNCIwgb/gTz1x3G1g/Zq/uwOvjAGh3cyLpCMA0Mp7caQI6++wRhoRHEvltkV/Vo4njCQiOYtqUcaMd9Ly1n4v1dMLnT2z6dzfs7KyBwMEOtAVPZ1yfmv0XCmAjCho5n5c5dLB8T0aA0rqP21dpWG1s7mhzn4MShtt3CvVCcrexTaARR01Mo1BrYeIIKjSJqwjw2f6PrCdaoY0yhqifpSSnkbZnHEw8o9UY8Mo8dxbZaxvdDjROco/fD0Cji3zhkez9Yyil4d5Z1G3aPuqQhLWXkvTGLJ7QhjEk1x1uN+2v//tXel3EkFgOUkjhBq6t7j9ZoOwft65ZSSo5D1461X9CUrYsj4biW1l1O7PFFSlurvcf6j1HnUtpxORnqhUDZukUkdpphTX3Hds4l2fiaqo7mQIyuXoKz1yqniJvVdHpCSCmJC7SLiL0sfjGXkOeVssSOReQYn1sb/wC6UkRJCcp7dkEK/ur6MlZF0zUnhc0l4Dd6OQkhQIg2Fr6XxS8W2dL8z/flaPJGt4YRfi9aSHDWRoe9aR9oWzp9iBJwV4+5kTUjvXitj63MqZYwllybC7mkba+AwEhG32ksNLhQTuHORcx+3/4DnPP6S2w+UkElgPkUecmzWPZRffK0ZvI2Z1NONx6KtqV/u4YNJhAoy9xFobbQcogd28vB1J+Yoe2sdd11NCOdAxYTQ2LCMT67dE82Bb8ogSRz6Qp2/AJQSWHarhoBoFZ1aV9njmeT8PRbyj4BFd+ksnij/YWKTSUVJftJfPpNCur69ixOZf6b+ylVx6Mry/azfHWu8rrWgd37wVLJ0a2vk3ZMKSvfuZSE9w/TeugSNmelsfm1SLoC/HkSa9xOj5az4+mJzN96mNJf1b1z51idvH/rpgHta2TozWk91bzcUkJitODrz4iYvhzN3Vu3nrJD/tzTx3Zx4Dd6uS4lXcr3ugsxo64xI9VUvD8BnYylOrrMQID+QiQ/nxz68jc1O+A3Otq9rJNT/oxYocs2lJa4+Gz2Yrpu3L2s2Nln5/erhQTnKn66AOBFuyu1ZdXUmGdumAjmcMx5W30CkGcp/yCLPAv0DhtcI0gFzdRNyMhaz5onlIB59AfDye2qHsStWk9G1npWPqh8IPO+2K8WKik75Yrb7lk1WdO/hjHg6wczKsQEFbv5+EtlUWVOOpkVdRyX1lgOsSPzFPgN5j5HAdPUi2c2LlFm6Xt3IXaFuu+nf0GNj25z1r5a2ybGKO3VNUbp0WRkpbFstKF3VXyIguuH8crGNDY/o5xMy44dVYKffiJQVhoZm+Yw4nrAUkSJ9s9Q6pCGb/fncazckkbG4sFKcCgr44xaZtxnp7zbM2R2EhlZycTdCXCK/9Uii1n5zPi0aaN/Rg01er363uyRLWz4BjBp7zttEpQ91+9f4/vSyQQqd9rXLUpQs/vsBE+xrjfB+sIoQTLnRd2xv5hrn85tLHYXBymU1vb5bICy4iLoHECNjH5dlJZwlC4EqCuxe48kF9V4/W3s0/fzc43lv38tJDh7k3Ra+S8RHTp7qRO/qliw3jApzMDhmLPpcmO1lsVyiHVrD4PfMKJCfI2lVBxMZ3H8eKKGRhAWOoqxbziZyX3nAO4L8AV8CehWh3FigwMpqRTSnqho4xiwL0EjB+NHBZlbc6nEzBe5+4FuRITVfXvl21LIrIDe0eGOP9BB/eht8qFtWyAgmN71PWnV0r7ua09U/MMEmsCnj5qGnDtAaSOzIb37wGw212XmuR1/HngynABf4KpraGssdlefh5l4VzvAxLVX2Re16xtK7yugZEMcI0IjGBGfzm+3R5Iwc0CNi0OnTv+i9CKDtPedY26/f11pxPYN6tcX1NSrc/7c3Fm5bch2YZFGRpb9JLKGK2Vzcq7uonAG9xirNKIa48X1ULA71xbgS1JJztFdUM3qZ6xuk7+RxOK+1hnyy2Lqfs5o6VpIcAbv/b/y8Vnl9z929yJp+GUkP3Qj68ffyNg/tAKqKDphH6QdjjkP14J7y6T1PgPDh9PV2PssSeWZp1eTUzmAVzalkbFpJcse7GaoZHChlB07lB6zqa3JWOrahVwytTHgW4yFwE2hRAQCn+WQV6z0sE33RzOkzrOsi9iWfhhM/Rlybx33sY5ctq/BuTO/uEgfd+OPjtoEKFg6kflbj9F1YhIZWevZ8NoUQurcJs3naPpa8i5056EVycpJddsG3lgcTZA6SVNj3+s19Ga1M83xY5SY1QC6wTDkUOf37znO/FIzE9ao7Rs8RRmHnWA/5m+dwASAP7372s9KLlhYn1vE3GPtyedvVMfem0hwsN2M9LJ1KXUbc85fSkIOunQ/SpZB3f2ClJpzDuzpxqqTL72uc4sJzvhcw7sZJxh1pOb/WVTS1z/x8rFazqbgOB3eYhSxPlmZFR0xyEGf5T/nOIcyDjlxeARhD0wk/v3DxlqKnEVqryKO5Z9VgHcXRg1Tx4ytqbOaE2/0E4qObljrMP1r044hMf0xsZ/35mRTWOO2JN3EsxfVD5+2X7oTW71u0zIoW6dN3lqknmBySVC3bZt9Wkv7anyVHEFZ5mxlApWjiVZOmamoAKgkZ2EMYaGjiJq8lBxDz869/a2NrX1rTGKrQ+CorKgADrHykVHWNGPY0Cji5++ixN0x3KABDLlK994cPpH5H52yr+P2+9dHPXOVs/lpbZ+0FLp77VsXQTPTyHgea/sr7YnSA1THf/1GL1fvfVbKE3L6kqBOAPPr04+uxe7fF+2cMpZt/YzsDiYhxMGQVaPpxXT1XuWw0Ajm08/1EEux7fjDQiMIUyd0WceYAyKJCbGl/z/uN4MQXbBWshSLlPdm8EhiO2vnnUUQE62bWHZpaDnBGfA2daDNV7/WGEd+LMdEm2tts7W3f3SqRh3b4xQLjhjXrN3zrN0D7aG+zCKjDPweGGOdFW3nlpHEDeuCSc0amjp0Y8To/jgcbdSCnLcP/rcP5plVCxzcLuKCdQw4kqh7nacpuTOUMD8oKztlmGXtrnreplUftbWvym/4FOKC2rs3w7wGX0LGP0bvDuoggK+JwD7jGOFoHN1DBA5zMJRgqeTonhUkJLs5Uce7O4/OH0dvP/W4r/BnyDPPEqMffnD7/evHiGm6NrTTRO2rG2uukRVQ2WcOdClt6xi4izR3QCTLjOt0tEy/HzN72d2zbPtdmXilnwfhuF7Ne579Ri8nQz+rXLc9ZX3+3FzzBVGeZ9c+tbfR9GDD7WjatlZE4qceg3U9wQ7a4neu5X195++MozZ1rJwd08ez/JtuTHxvQT1Sw6r8pUov1XrLQv2Ub53F2DcOE/h4Eq8Md9HLbKiDbzH26Wwq75/Dhrim/LKVRmrf353DJI6axeZf/YlZsZyozgBmyre+pIwH3/ssGdN6Gp8kfg9KUomfUEKMelGhfEVnFxJcXWSIRtOies6XtGNZbPimvmO2ja2IbZuVMeD63BLlPse3aTUJj2pfT2LGbAEw4eutju+az/Ptv48BJobcJ4H5dysgkpgQ23CKksqXwNxcpOf8X+aoTZtUI/WcxaWj8tgu/rkshYJj5VRYlKGQdjf1ZPTjTzLk9qadoCfEpUqC83+ZozYVQghxaZO0thBCCOFhGhycW19mXCLcJW0nhBDCkQYH56AOxiXCXdJ2QgghHGlwcH7gNi/u7ii9wLpofRnc3VFpOyGEEMLIrQlh58+fZ2pOO5m8JIQQQjSDBvechRBCCNG4ag3OXl5etGrVCl9v+K3m11oLIYQQopG5DM5eXl54eXnh7e1N4HXVFNTpf6EKIYQQoj5cBmeAVq1a4e3tzcBO59l2uJpPf5AetBBCCNGUXE4IQ50UZrFYMJvNFJdXs/N4Gwp/9lK/b1cIIYQQja3W4FxdXU11dTUWi4WLFy9isViwWCxUVVVZy4UQQgjReGoNzugCdHV1NVVVVdbfhRBCCNH43ArOGq1qHZ4ihBBCiDqqU3AWQgghRNOrdba2EEIIIZqXBGchhBDCw0hwFkIIITyMBGchhBDCw0hwFkIIITyMBGchhBDCw0hwFkIIITyMBGchhBDCw9TpS0jkG8KEEEKIpudWcJbv1hZCCCGaT63BWQvE8l+phBBCiOZRa3DW/z/n78+fIq38IAfOlWKuumisKoQQQohG4DI4a2lss9nMd+f+l9mlWYz+w130aXczl3v7GKsLIYQQohHUGpwvXrzIb7/9xuIfP+S2K29kwHV/NFYTQgghRCNyeSuVfrz5wLlS+rS72VhFCCGEEI3MZXBGn9quuiipbCGEEKIZ1BqchRBCCNG8XI45V1VVUVlZSUVFBWOLkkn+86PGKgCsPvEpe8q/5z+WSmORcOBybx/6tLuZcTfebSwSQgghGt5zXn3iU3b9/G8JzHXwH0slu37+N6tPfGosEkIIIRoenPeUf29cJNwkbSeEEMKRBgdn6THXn7SdEEIIRxocnIUQQgjRuCQ4CyGEEB5GgrMQQgjhYSQ4CyGEEB5GgrMQQgjhYRr8JSQxB982LmoEA1jV83YCjIuBiv/LZeR3++2Wxd8ez6DL9Ut+40DpG8wq0y9TGOuW/LyMCcXqH51jyLruWluhgaNtN5SjNhVCNEzZ2pk8/t5J42LoHMmbq8LxMy5vLCXpTHk0j3veXki4oxNYA+xbEMPcT4xLOzC+sbaVt4LwOfDCB5Poqf/dWE80Cw/tOVfh7IrBdGVfNt7aQ/2rBwv+YgzMAK25wz9eV08RcesTNeoGXBfPqs7qHxZnW1VU11Le7I6m8vigGKL/+a2xpHFc+IpVo2MIH/ocWSXGQqPjrH0ohvAH3uagxVjmjJmKo9+S9c4rzHxwPOGDYghfUGCsZGAm/4UYwgfNJeu0scyFknSmDIpRtjEohvBBK9hnrGPU1O1bJydJnxBD+KCZpBtei7K054gcFMO4JV9Rv5vzzBxLf5vnH5lbY912SrKYOTSG8NFvs++CsdADdY7kzQ+SSbc+4ulXnMrLax0E7Zbinnjd8STz5kOQ9Kgb72XR4nhocNacJnv7XPprjxPK2djkfQ0AEbf+lTu8a9Z748x/lHpX3k68dV09+J8rWgP/4ctC+3oBbQYoVY6+WWNbVHxpXTb8kCd9BMzkr06njBsYMvQ2Y2Gzq/xwI++XgV/YQP7sbSx14vQu5k5awKr1Byg852ZYObqVdz4D7hrIwOuNhY3Js9q3aZ3mUFYOB09WGAt+Z4IY+1AHju3+AgdJtRbJb8xI+pHPJ3nGkgbqPYl06TX/V3l4cPai1Q1X01p7+Hipy6sNwfYtlunqpX+zhOwKgGu529p7LuDH3wAu585bHmG0Wq//9rn0/yxbqeLbpua2vC6zLvNt40HNdXoXWz4D7hrJg12NhY3kir8wYV0y6dvmEeoybXaWndsOgPcdPDKqk7HQuevvZkCPDoT+Yx4ps4KNpQ4d3LaTMm7gwXHB1Ol/pAWEs1TrPRnLHGmO9m0kfhHzSP0gmdVT/1K3NqmrgFAWbksmfd2j9LzCWNhSFbBEl1FZYghy+xbosi36rI5dJqZmNoPdK6zPm2LXU3e2PSUzsmSB+rxaM0gOlKQzZdAKlqj7rK3b6TEYypbk6AryVthnl1wcr7vrd95+NdtdeHxwvo5BPePJ0h7trwPgh18/AK7hmssAzlH2axu7A/Fq05Zl/6f2fK2p6Fb8U1vmHcCjPePJ7vssW+/+G62vbNJTWpMoXJdOIW0IHW4fpOw+DINiCB8+mZlLCijXUs15yod/ScZXJP19ApGDYggf+hQvrz2Crd9kfwIxfhhrOLCFDf8G032hBKsn7WPvPEX4oBgef+e4XdVjb08mfFAMM9POAlczcMFCJgzuhMmd3vbpXWzccR7+OIAh1oCp7OuT81Yzd3QM4aGTWbXjE14bHUP4oPHMTKtfCtNx+6rtMm8X+1Y8R/RQZRuPP5dO4TlDnQUFULxL2adBMURPTdXVgYqv03n5ETWVP2g80X9/m3xDd648dzXPP6q+RoNmkmRMZ6+daf9aOzmhl3+RysvW9ehPhtrrPJOkYoCTJD3q4DV3a0jATNknb9uGJ7RjOmlWy9W0/IRU8tNe4cnhyroiH3qFndqcD4Az35L+3Ey1bV1trz4KWPPeSW7q9z/qmPNJ0icso/ShhUqa+O1ISufYjrts7UzmFmup8YWML16mBtoCljyaiv9sNb08u5MhtXySpN03Ks97OxLem6m2t+vtAewuVp83K8i20IWytRvZTTD39NaW5FPaUVn/1N6ujkE5F8z9JJgX1LKbi/N1a9Zzfrz264+n3ye29Tvf9knS5+nW93YkpXMa6zX+/fDw4FzTDyfmElvko/aeAbzwcnBib9VK62XrlhW9Rf/CInTnSExX9iXrdjWt3VJcyGdL9nn4YzhR9sPqNV04S+GOZcxZbx+kdv9rCenfnVfGKM0/kf/eXP71oXYirQsz+Zt2Uc4tjB1rS//eNHQAgUBZxicUagst37Iz+yy0DWFM+NXWuu46ti2Lg5Y2hD4USjtDWWnuLvadASxnyVqSyM4zAJUUbvqEY4a6taqtfXNXMzf9OBVmgErKvkhl5qJ8+/He4p3MnbFa2Sc1GL+6Ub1Q+S6FKVNTyT+pPaOSiu9yePnvK6xjueXpcxk3bxcHS9TXCMDtsXyb8vS5jHsunXz9eppA2ca5PL4gh8KzhmN69GV26ucGFKfz8qoDlKrHWVl2gNeStLY7y86XFpD0xUm1bRuoWJkzYAvyy9h9TzxLx3RQyku+4JPiYMZqfweEM/aek3yyWwkge3frA3kHwlclK8/N+5zdnSMZqwXE3sMZ39k+tdxvnDrpLCCcsffA7pyCWransG3PiU+W2V2QPf4ejH9bn37uwD391PWrx2DdFzoQPi7Ymtbfl5MP9/xVfa5S5lDe5/YXANaUt7GN9MMGrrcNsHt1uvJ7QDhLJYVeg4cHZ8OY8/a5xP5wNT6+AD9zphLAhJ+Dd3P8lUov245vG1r/upHhhrFpLv9/urFpz1eevZN8CwQPHVAjSPWcpZ8Ak8jqSUrAPPaDoQd59R1MfjuR9A8SeW2U8mHO//ygWhjEVO1qV5ss54w1/WsYA75+AA/e0wbO5ZGjTnCv/CSLrHN1HJfWWL5lZ8ZP4DeQgY4CZtsgnt40jwevB7w7MX6Vuu+ny/nFWLcWrtpX0YbgfywkNSuZ1BXh3ATw2ZdorQdA8bfsu34wCzclk/qc0gsqO1pEJWby12RTBvz5UWUd6dvmMaYzcDafT74EOE7m+0eU7fxdrePgtfAbo/bAZjs5qfItG95T1/OPeaRss703pvbGwevcgfFva3V0M4BrHRL4li3rjwNt6DfrNVI/SCZ9y0Im/AmwHCHr41N2tdvdMZrXtiWTvmSAcuIuO4VyDfMb59Wg7d87kqf/uUQ99nqeuPUTwmYHK8c3VtcjLTnBMfKZqwt2cz/RPisn+b4Y/Ltogc6mrOi4IfArmYfSIu0z1oGbdcNA/h21iwFX23OTYUKY3etUg3IMu+foLlDm5EPxCUo5SWkx3KTtG0DAjcp72aCs6Dh0vhF/Y4GLNnK97Q6Er1rIeHRtOEEN1MLKw4OzYcz5Bi0wA3zJ5+f+A1zOX/xj7IJrxK1PMOgKgP9w5IyWLBnAqp7xZP31UaZbx6YL+UH3vBbB8i0b1h4Bv8E8eI+1MawqDmSx5O+TiQ6NIXxQLONWOJlpfOc9DAzwBXwJ6FaHcWKDg2vSKeQGHhxrHAP2peeDA/HjPFlb8qnETEHOAeAWhg+t+/bK01PJOgfBY0MdnkAIupvgtj60bQsE/A+9aruocKaW9lXcwcDBHfDxBp+unR2ctABu4MF/RBPYFnz6qifUeffgw2lOqWehg2/PJDJUmQ2/Vp/a5Sf+9zTKdsKU7dTLyWIlle43kDGDO2FydjgNpdvOg/dcrbwPruhAzx7qSdt8UVe5AxF/DyXAF7i6HSZdCbQnfHY8obe2oSwvlZf/MZXIUOOwQT31nlRzZnPAjdyEltbVPWYFKQG2sz7g2vh16eRgJrjaq3agVAu+LrfXFJRj6Kelj62PSfSkA/6dDRcGJSccZpn8unRSg6qR8zZyvW2lPHyVtux3MIu+CXh4cHalFZu/3sOXlQDX2o1NP3plawDOndnD06e1Q8zma3WSmFY3u+9f6AhQUcpS24o9mtb7DBw+hJuMJ+2SdJ6bsY7d5ntYuCWZ9C1LWDrqFkMlgwsn2bn9AACmtm2Mpa5dyCdLGwO+1VgIdB3I8D8Cn31KfrHSwzYNjiS0zrOsj5O55Qi0DSG0fx33sY5ctq+RxUxJ9idKj7mtyRBobibQUZtgok1b1F6xfW823dqjvYzW3gDHOXrUrI7nbmGHq3F/Rzp0oKs3ULaTtdlaGt6VCn4+U2ulmnTbef+Ts0qK+sJxcj5VTrZt29q3jEt+QUz41ypSsxJZ/c9YBnZQhg3mvuPkIrMO/MbEM75zPnO1sfmA/+GezvmssQYFZQxeGRftQK9+9jO79y1Qx/V7/5V+xams0dLY6pi8fnJX0hp1GyXprPkE+oUE1bK9pqAcgzV9rB2D2kvtGRIMn2y0jnnvy3Ey5tz7r/YzwkvSmTJoJuklxjbSj+m72rZy3Lb2UgK54x74pesy44KWxKvNIZ7OyeMfwS8w2O7z/x++LFzE9J+u1M2w9mHZF3Phfwx1K76k/xcftpBJYcd5f7UyK3r4YAdjthcqlEldxelMHppuLLX3yTLC9V9o4N2JqOHqmHHeCiUFZaVMFEoCbnpoobWHcGz9xlrSv1cT+lAIa2blsOaFk8osa7vbkgpYMmgZu3VLrPul+7II621ao+qRDlfV/FKKfOYOUo6x32wtKNbSvla252puGjWQQLslzlzNPQ8Gs+brfPL/9Rz5/9KXBatf+vAXBgxuw86Mk6ydFMtafRWrk6RP0CZyqayvqW09oRE3sHPjT+T/8zny/2mrajtmlNOAN8BZ0mfEorxzbF9uUXvbaft7nt0LJrN7ga7q1cEMv+9q0E03dM7B+0FVpwDvlDLumTRnGVM6Ku/j8FXxfD9oJuHvqVXuiSddfX/7jVnICz/E8PigVKWscyRvrlJ6uVPfjmTKozGEq0+76aGFSnuWKNsZ3/Fzwgctsy/D1faaJkDXOAaCeeEDdRy49yTefGgmj2uf7XuCHWelCKpxvP1mJyvpdOP6XbWfbtvG9XFPPOnW96PAc78hrJLKn85ThQ8+N9jPxHak6v/OUqkOHyu8uezatng7OJHXqHt5G8eB2Xye385WOi9vJI7a1Kn9bxM9K4e2o+bx5iOOUsPnObhiPi+rvSRTh1sY8LcO7FubQ+k98Ur6TAu83uoEI28f/P8YwtipownuoOY9awRnG2twtnzLqgcXkGUKZ+l7kU4+1KhfTvIc75cBfxzN6n/qJ3M5PxnbgvNZsv4xmVXf3cHTm6ZZZ4PbqOu4J570WR2UgEUkb676H/ZOmElSsRKo/GsEGBtroKq1fXX7q7afqcMtDBj3BDH3tFfT+lodLUA6Vp67miVJORy0TgpDF1QB83Gy5i4j6YufqPT24ab+k3jkho08vxY1aDoIzlb6bZ+nMO0t3tl4gEJlkgbUCM5A8S5enpOim6TmKjjbWNdjOcu+95aRlH5Emezl2wb/O0L5+1PhBF6L7mJC941WJelMeTSVY9bXuub7wefqTgSPiuaJ8Nvcm9EvxO+EhwbnS4ejNnXsLDunTua1r29hwtoX6pEaVmmBVwvW9VSePpdxK44QOOE1Fka46mU20IHVjJuxi8rBs0j5R1N+GYg77ete4BVCiIaqrVMqPMXRnWz8ur5jto3tOJmblDHg+twS5T7Ht2k1CY9qXyHEpU6Cc0vRVZkd2rS9R3d1Ysx7yaRverTeY8Du8SV4bjLpHzjryTYij2pfIcSlTtLa/2WO2lQIIcSlTXrOQgghhIdpcHC+3LvpZjL/3knbCSGEcKTBwblPu5uNi4SbpO2EEEI40uDgPO7Guxlw3R+lF1gHl3v7MOC6PzLuxruNRUIIIYR7E8LOnz/PmGPvyeQlIYQQohk0uOcshBBCiMZVa3D28vKiVatW+La6jP9YmvI/wgohhBCC2oKzl5cXXl5eeHt7c0dbf/aUf2+sIoQQQohG5jI4A7Rq1Qpvb28i2v2ZdT9+xq6f/y09aCGEEKIJuZwQhjopzGKxYDab+f78KdLKD3LgXCnmKv0/UBdCCCFEY6k1OFdXV1NdXY3FYuHixYtYLBYsFgtVVVXWciGEEEI0nlqDM7oAXV1dTVVVlfV3IYQQQjQ+t4KzRqtah6cIIYQQoo7qFJyFEEII0fRqna0thBBCiOYlwVkIIYTwMBKchRBCCA8jwVkIIYTwMBKchRBCCA8jwVkIIYTwMBKchRBCCA8jwVkIIYTwMHX6EhL5hjAhhBCi6bkVnOW7tYUQQojmU2tw1gKx/FcqIYQQonnUGpz1/8+5uLyancfbUPizF2aLsaYQQgghGoPL4Kylsc1mM8fOWPjXfhNDu3kR1AFaX2asLYQQQojGUOtsba3nvPN4G4Z28+LujhKYhRBCiKbkMjjrx5sLf1Z6zEIIIYRoWi6DM/rUtkV6zEIIIURzqDU4CyGEEKJ5uZwQVlVVRWVlJRUVFUzbfQ2v3u9lrALApm+rKTgJv100lghHWl8GQR3ggdsct6cQQohLW4N7zpu+rebTHyQw18VvF+HTH5S2E0IIIYwaHJwLThqXCHdJ2wkhhHCkwcFZesz1J20nhBDCkQYHZyGEEEI0LgnOQgghhIeR4CyEEEJ4GAnOQgghhIeR4CyEEEJ4mAZ/CclT250+vWn08CKpo/2i86ermbzH9vegPl5EXa+vYS93SzXv4MVLw+EPxkJNJWzIrOYD4/JG5qhNhRCXlrJ1ccTm9iNxRSR+xsL8pYS9CAlZUwgyljWJvSwOXUSOcXHnaMf7Vw/64y1ZGEECM8iY2ctY7ZLWonrOj/SvGZgB2lzvRVJ/XZCrcnXBYKFK/emqFtUt4B9WH0shNjSCqOWHjCWN48I+Vo6JIGz4VDJLjIVGRSQ/EkHYyNc54HbTmak4dojMd+cxbVQUYaERhC3ca6xkYCZvTgRhobPIPG0sc6EklfjQCGUboRGEhS6lwFjHqKnbt05K2TwpgrDQODYbXouyLVMZERrB2KX7qLQvcpOZo1tf59lHZ9VYt52SdKYNjyBszOsUXDAWepC6vNaNcEyVR7JZPv0Jnt1UaixqVgUL3fn8uC/k+TQysrTHcmJJIbYR1y9caznBuYcXfa8EqOKbz04wKkl5rPlRCbVcWc30rvZPqfjxrLWe7XGWJADMzLAuO88JAC7ysbZs/Xm226/Ow5jJS06ljPaEhXU3Fja7yo/WsqEM/IaEcoe3sdSJ09nMnjyble/vp7DCzbByLJXEz4C7QrnPRXak4TyrfZvWKQ5u/5ADJyuMBcINZwqy2fHNKc6ZjSWNJHgKGc3Wa3bGnxExfSEn3/mFTj0FzUyTXrMDLSY4P3KN8vPEkZ94ubQDba5VHh/m/MTHZ+HEkVPM/87+OV7eV1rr2R7XoMSOy/G1LmuN0u/2opW27Kq26jIPdTqbtM+Au8Yw6iZjYSO5oicT16aRsWUJQwKMhXrl7MjYD949iI3qYix07voQ7rvTnyFxS9gws6+x1KEDGdmU0Z6omL74GAtdCYhkWVYaGVkzCDGWOdIc7dtI/IYvYXNWGmum9Kxbm9RVQDivbEkjY+2TBF1hLPQgdXmtW8Ix5S/V9f61DIr6UHuyZeviSMgBchbZes/5S3XZgwji16k9+5JU4kOXsnihsnxxvnVLbitYGEH8wqVKhmJSKmWgpsNt27Nfr36/43jvB1uJscdfoO5XjUyaXUbEmEFysW27djA+z3O1mOB8XWuAixz5qj0+up6Z1+XteTfjBDMNywHatG9F0nAv+4c+/d2CFW5IpRATQ4bZBym7N3ZoBGEPjGfa0r2Ua6lm9Y26OHMfifExjAiNIGz4E8xfdxhbv8n+jV7rG/rgRtYVgmlgOL3VE9zRd58gLDSC2HeL7KoeTRxPWGgE07aUA+2476XlTLy/CyZ3etuns3l/ZwUEDmaoNWAq+/rE/LdIGBNB2NDxrNy5i+VjIggLjWLalvqlGh23r9ou87MpeGMqUcOVbcS+kEqhtfHUOgv3QnG2sk+hEURNT9HVgYpvUpn/qJrKD40iKv518pQznFX5nrd4doL6GoXGkWhMZ6+Ls3+tnaQcywtSmG9dj/JQTl7a6xxHYjFAKYkTHLzmbqWJzZTlvG4bntCO6aTWnVRPzpNSyNsyjyceUNY14pF57CjWreaXQ2x+IU5tW1fbayB3jslcRt7SqYxV99XYLtpnLTZZeY8dTba9HtZA2MjK1i0isdMMW6r5+CIW54Pf6OUkhAAh2tjtXha/WETsKjUt/XxfjiZv1B1jLqUdl5ORlcb0YLtNOFHK5uRcCAm29uCP5kBMVhoZKyLxo5TNkxZRGqOsM2NVNKUv2tqqbN0iEokmMSuNjKxoyHHcPmXr4kg4rtVTjk9py70snpCCv5pqT4yBxAn6CxZn2za2QxcSF2gXE56thQRnbXTYm/aBtqXThygBd/WYG1kz0ovX+tjKnGoJY8m1uZBL2vYKCIxk9J3GQoML5RTuXMTs9+0/DDmvv8TmIxXKGKX5FHnJs1j2UX3ycmbyNmdTTjceiralf7uGDSYQKMvcRaG20HKIHdvLwdSfmKHtrHXddTQjnQMWE0NiwjE+u3RPNgW/AJZyMpeuYMcvAJUUpu3iqKFurWpr3z1vkbC1iAozQCVlBSlMeyXXfrz3eDYJT7+l7JMajBdvVC9UjrxL3PQU8k5qz6ik4siHzI9fah33LN86i7HzszlQor5GAPV465ZvncXYF1LJ06+nCZRtmkXswg8p/NVwTBNms0M/N6A4lflv7qdUPc7Ksv0sX621XTk75s8msaBUbdv/rsK3pjF/ZxHl9RyLbjI5KWrg8WfECmfBtRfTs5YzQs14lRXbXySDP/f08Tcss5fzov1FSSLRJOrTz7pATclePinuS8xodZ0BkcSElPLJnlKglLzcUrr27aVOJuvFQzGOtm2spxzfstH+kJ9PDn35m3qsfqOjCSGXj/Nr27ay3sQU9cI1eIp6MeH5WkhwruKnCwBetLtSW1ZNjXnmholgDsect3nAp76Byj/IIs8CvcMG1whSQTP1kzjWs+YJJWAe/cFwpXpVD+JWrScjaz0rH1Te1Hlf7FcLezFdu3LtbPesmqzpX8MY8PWDGRVigordfPylsqgyJ53MijqOS2ssh9iReQr8BnOfo4Bp6sUzG5cos/S9uxC7Qt3307+gxke3uWpfhYneccvZvC2Nza9F0hXgswIO6KsUH6Lg+mG8sjGNzc8oJ7SyY0epxExeylbKgDtilXVkbFlCTGfg11w+/gqgiG2ph5XtPKnWcfBa+I1WewrPOxsSOMS6ZHU9cUvYsMX23lBO6MbX2d/Ww9Cd2GtPEx8ibX0RYCJkZhKbs9LI2LScibcDlsNk5tj3U9r9eRwrt6SRsXiwcpIsK+MMAL9RoQZC/+Bonnl1pXrs9uOtNTIGxjSmO2o9Jjh3QUl1tLtlMBNf0trP1i7aZy1RDTRdtZ5blhpQmoDf6OVqr7FmT96effp7fq6xvHb2E8K0HrITpSUcJZcE3WuSkKOdd0r5vhj8O9vaxK+zo+GvmvU0ZcVF0DkAh6NrLrfdi+lZMwjJWWR7vzjJMHmaFhKcvUk6rfyXiA6dvdSJX1UsWG+YFGbgcMzZdLmxWstiOcS6tYfBbxhRIb7GUioOprM4fjxRQyMICx3F2DeczDS+cwD3BfgCvgR0c/RBcc+BlFQKaU9UtHEM2JegkYPxo4LMrblUYuaL3P1ANyLC6r698m0pZFZA7+hwJRgaBfWjt8mHtm2BgGB613ZR4Uwt7avowX33++PjDT433UTNUwlAe6LiHybQBD591DTk3AH4cIoyNVYdSIxjxFBlNnyyPrVLGf97GmU7Q5Tt1MvJY0oq3W8wMfd3weTscBpKt51RIe2U98EV/gT1UFvGrO+z+/PAk+EE+AJXXUNbXQn4MeL5GQy5xURZfgrzn5rIiKHGYYPmEzRxAbFB7ak8ls3KZ5VhjKhJNYcfmpv1oiwrjYSQUsdp2vyNJBb3JUG7WIip+2euTvwD6Ipte9bHzF6APzd3htJiWwehZk8eh/U0fp27QHEJDq9DXG4b3UWokvLumqMMBXi6FhKcwXv/r3x8Vvn9j929SBp+GckP3cj68Tcy9g+tgCqKTtgHaYdjzsO14N4yab3PwPDhdDWetEtSeebp1eRUDuCVTWlkbFrJsge7GSoZXChlxw6lx2xqazKWunYhl0xtDPgWYyFwUygRgcBnOeQVKz1s0/3RDKnzLOsitqUfBlN/htxbx32sI5fta2QxU7J9l9JjNrU1BJpu/NFRm9AWkwm1V2zfm82w9mh9aO0NUMTRY2Z1PHcjHzg8M7nQwV85hrJskrdraXhXznHml1or1aTbzvqcciVFfaGITz5VTrJtTfYt45JfLyYuS2bztvWseXUS93VQhg1mv2u7yNQHJ/t2a2SmboyY+wYbtq1nw2sziPqziYriD5n/SjblxrrAuTO/NOnQAQ4mTwV09IdO/k56tEWUlGAbL25KAb24p3MuydaxdmU+gzJe7E/vvv66MW8lfV2TWi93r/Viw3q8wcG2NDZQti7FluZ2te2SVOL12YUAf/zx52bHV9Qe5TLjAo/lcw3vZpxg1V/9WH+L/W5X/HiW2Oz/4HN1zUlhNTlIh7cYRaxPVmZFRwxykHD9zznOoYzrTRyeaiy1l7OIMP23DHh3YdQwdcw4fylhL+o/zMpEoUQ1dael7I5uWFtL+rcdQ2L6896zH/LenFJllrXdbUkOvuxA2y/dFx5Yb9N6sB7pcFXZujjrxB1FLgmhyjGGPK+d3GtpXyvbczVdRylj7LVrx98i+/LeN7nkvT6VvNf1ZX3VL5royX33m9iRWUry5FEk66tYlbJ5kjaRS2V9TW3rGTK8PTs2nSJv+VTyltuq2o4ZwEe9TC9n89Oj2AxqiltJ4dbedtr+VpCzcDw5C3VVr+rLiIHtQHln1sLB+0FVlwBf+/66U8dB+2ratsXuEtFXyRmVZc5mRKaySP85cVtxCrGhKXaLQp5PY7ru76CZy4mdFEdYqLakLwlZSg8xqF9feHERYcejSVwxktjOcern1p/Y56Pp+uJuSkpooluy/BmxYgbfh8YRpr1hQ2aQobaB3+jlJPwQYWvjkL5wXPd0lVbP2g6do0lcoRzf9FXRxE+IIAzU96c23OFq25Ese76EMPX8hfraTHeYH/csLabnDOBt6kCbr36tMY78WI6JNtfaAvP2j07VqGN7nGLBEeOatXuetXugPdSXWWSUgd8DY6yzou3cMpK4Ybb0palDN0aM7u847aoFOW8f/G8fzDOrFtjGGN1hHQOOJOpeF/nSO0MJ84OyslOGWdbuqudtWvVRW/vqqe1n6tCNETNX8soDDlvZIZ+7pvDaM4O5o4PzG58CH5vLxKD2SorY24euA2fwUl1P9kDX2CW88ngvAq9xvi3wY8S0x+jtYn9qE/jEv0h4sBv+Wrv5mvAPiuaVlVMadIuSz1VdCHl8DsubOi3rjivac8ewKSTOsh/C8Rs+hbig9u7dceCEo2yANSNgd5+zMknKVkc3Hh88RVm2IhI/u3rLGREcyTJtvDxA97tDShrYVTbC8b3JuvRxVs1y/XyY6TNtE7OM67KbN6Mf57bOE1CPyW7/XWxbaxf1UeeLpv+Slvf1nb8zjtrUsXJ2TB/P8m+6MfG9BfVIDau0XrH1lov6Kd86i7FvHCbw8SReGe6ql9lAB99i7NPZVN4/hw1xTfllIO60r9az03qmQgjRNFpUz/mSdiyLDd/Ud8y2sRWxbbMyBlyfW6Lc5/g2rSbhUe0rhLjUSXBuKW5Sbsxv2t6ju7oQ804aGRufrPcYsHt86T07jYwsZz3ZRuRR7SuEuNRJWvu/zFGbCiGEuLRJz1kIIYTwMA0Ozq1bzs1YHkfaTgghhCMNDs5BHYxLhLuk7YQQQjjS4OD8wG1e3N1ReoF10foyuLuj0nZCCCGEkVsTws6fP8/UnHYyeUkIIYRoBg3uOQshhBCicdUanL28vGjVqhW+3vCb8o+hhBBCCNGEXAZnLy8vvLy88Pb2JvC6agpOGmsIIYQQorG5DM4ArVq1wtvbm4GdzrPtcDWf/iA9aCGEEKIpuZwQhjopzGKxYDabKS6vZufxNhT+7IXZYqwphBBCiMZQa3Curq6muroai8XCxYsXsVgsWCwWqqqqrOVCCCGEaDy1Bmd0Abq6upqqqirr70IIIYRofG4FZ41WtQ5PEUIIIUQd1Sk4CyGEEKLp1TpbWwghhBDNS4KzEEII4WEkOAshhBAeRoKzEEII4WEkOAshhBAeRoKzEEII4WEkOAshhBAeRoKzEEII4WEkOAshhBAeRoKzEEII4WEkOAshhBAeRoKzEEII4WEkOAshhBAeRoKzEEII4WEkOAshhBAeRoKzEEII4WH+PxpogKAp0FLHAAAAAElFTkSuQmCC;" vertex="1" parent="1">
          <mxGeometry x="59.769999999999996" y="360" width="270.23" height="460" as="geometry" />
        </mxCell>
        <mxCell id="SeLuox86SnjeD-x7noZh-28" value="&lt;span style=&quot;font-size: 15px;&quot;&gt;API&lt;/span&gt;" style="text;html=1;align=center;verticalAlign=middle;resizable=0;points=[];autosize=1;strokeColor=none;fillColor=none;" vertex="1" parent="1">
          <mxGeometry x="160" y="320" width="50" height="30" as="geometry" />
        </mxCell>
        <mxCell id="SeLuox86SnjeD-x7noZh-30" value="&lt;font style=&quot;font-size: 10px;&quot;&gt;PostgreSQL&lt;/font&gt;" style="text;html=1;align=center;verticalAlign=middle;resizable=0;points=[];autosize=1;strokeColor=none;fillColor=none;" vertex="1" parent="1">
          <mxGeometry x="340" y="450" width="80" height="30" as="geometry" />
        </mxCell>
        <mxCell id="SeLuox86SnjeD-x7noZh-34" value="&lt;font style=&quot;font-size: 10px;&quot;&gt;PostgreSQL&lt;/font&gt;" style="text;html=1;align=center;verticalAlign=middle;resizable=0;points=[];autosize=1;strokeColor=none;fillColor=none;" vertex="1" parent="1">
          <mxGeometry x="460" y="360" width="80" height="30" as="geometry" />
        </mxCell>
        <mxCell id="SeLuox86SnjeD-x7noZh-35" value="&lt;font style=&quot;font-size: 10px;&quot;&gt;CSV file&lt;/font&gt;" style="text;html=1;align=center;verticalAlign=middle;resizable=0;points=[];autosize=1;strokeColor=none;fillColor=none;" vertex="1" parent="1">
          <mxGeometry x="470" y="490" width="60" height="30" as="geometry" />
        </mxCell>
        <mxCell id="SeLuox86SnjeD-x7noZh-36" style="edgeStyle=orthogonalEdgeStyle;rounded=0;orthogonalLoop=1;jettySize=auto;html=1;exitX=0;exitY=0.5;exitDx=0;exitDy=0;entryX=0.995;entryY=0.264;entryDx=0;entryDy=0;entryPerimeter=0;" edge="1" parent="1" source="SeLuox86SnjeD-x7noZh-18" target="SeLuox86SnjeD-x7noZh-25">
          <mxGeometry relative="1" as="geometry" />
        </mxCell>
      </root>
    </mxGraphModel>
  </diagram>
</mxfile>
